<svg height="1250.561" viewBox="0 0 1081.273 1250.561" width="1081.273" xmlns="http://www.w3.org/2000/svg" xmlns:xlink="http://www.w3.org/1999/xlink"><linearGradient id="a" gradientUnits="userSpaceOnUse" x1="-109.211" x2="118.158" y1="1329.185" y2="1113.185"><stop offset="0" stop-color="#d497d5"/><stop offset="1" stop-color="#ffeef8"/></linearGradient><radialGradient id="b" cx="269.004" cy="951.158" fx="269.004" fy="951.158" gradientUnits="userSpaceOnUse" r="117.903"><stop offset="0" stop-color="#d479ab"/><stop offset="1" stop-color="#ffbfc7"/></radialGradient><linearGradient id="c" gradientUnits="userSpaceOnUse" x1="577.648" x2="386.659" y1="461.139" y2="1029.561"><stop offset="0" stop-color="#d43e60"/><stop offset="1" stop-color="#ee3358"/></linearGradient><linearGradient id="d" x1="517.217" x2="326.228" xlink:href="#c" y1="440.835" y2="1009.256"/><radialGradient id="e" cx="774.899" cy="811.326" fx="774.899" fy="811.326" r="97.828" xlink:href="#b"/><linearGradient id="f" gradientUnits="userSpaceOnUse" x1="332.759" x2="510.107" y1="686.978" y2="366.388"><stop offset="0" stop-color="#0c72c3"/><stop offset="1" stop-color="#0fb3e3"/></linearGradient><linearGradient id="g"><stop offset="0" stop-color="#d479ab"/><stop offset="1" stop-color="#ffbfc7" stop-opacity="0"/></linearGradient><linearGradient id="h" gradientUnits="userSpaceOnUse" x1="463.824" x2="488.834" xlink:href="#g" y1="451.523" y2="543.987"/><linearGradient id="i" x1="582.645" x2="587.193" xlink:href="#f" y1="594.546" y2="373.999"/><radialGradient id="j" cx="823.783" cy="554.4" fx="823.783" fy="554.4" gradientUnits="userSpaceOnUse" r="251.882" xlink:href="#g"/><radialGradient id="k" cx="394.689" cy="203.116" fx="394.689" fy="203.116" r="65.04" xlink:href="#b"/><radialGradient id="l" cx="394.689" cy="203.116" fx="394.689" fy="203.116" gradientTransform="matrix(.94783519 .3187608 -.3187608 .94783519 89.218 -154.025)" r="65.04" xlink:href="#b"/><radialGradient id="m" cx="394.689" cy="203.116" fx="394.689" fy="203.116" gradientTransform="matrix(.93279637 -.36040385 .36040385 .93279637 -60.53 193.836)" r="65.04" xlink:href="#b"/><linearGradient id="n" gradientUnits="userSpaceOnUse" x1="155.263" x2="378.084" y1="316.986" y2="62.334"><stop offset="0" stop-color="#d46b19"/><stop offset="1" stop-color="#ffa81d"/></linearGradient><linearGradient id="o" gradientTransform="matrix(.94783519 .3187608 -.3187608 .94783519 81.151 -131.738)" gradientUnits="userSpaceOnUse" x1="446.956" x2="438.619" y1="131.45" y2="240.208"><stop offset="0" stop-color="#49457b"/><stop offset="1" stop-color="#586c8f"/></linearGradient><linearGradient id="p" x1="521.949" x2="513.612" xlink:href="#o" y1="137.199" y2="245.957"/><radialGradient id="q" cx="448.795" cy="263.053" gradientUnits="userSpaceOnUse" r="166.793"><stop offset=".618" stop-color="#586c8f" stop-opacity="0"/><stop offset=".889" stop-color="#b6c8ea" stop-opacity=".6"/><stop offset="1" stop-color="#586c8f" stop-opacity="0"/></radialGradient><linearGradient id="r" x1="254.12" x2="476.942" xlink:href="#n" y1="403.487" y2="148.834"/><linearGradient id="s" x1="214.454" x2="437.275" xlink:href="#n" y1="368.779" y2="114.127"/><linearGradient id="t" x1="659.687" x2="902.971" xlink:href="#a" y1="1144.346" y2="907.883"/><linearGradient id="u" x1="578.73" x2="583.277" xlink:href="#f" y1="594.465" y2="373.918"/><linearGradient id="v" x1="333.578" x2="510.925" xlink:href="#f" y1="687.43" y2="366.841"/><linearGradient id="w" x1="572.402" x2="484.865" xlink:href="#c" y1="586.244" y2="644.223"/><linearGradient id="x" x1="688.84" x2="635.408" xlink:href="#c" y1="867.869" y2="690.522"/><linearGradient id="y" x1="823.367" x2="769.936" xlink:href="#c" y1="827.338" y2="649.991"/><linearGradient id="z" x1="192.762" x2="370.109" xlink:href="#f" y1="609.532" y2="288.942"/><radialGradient id="A" cx="84.457" cy="319.832" fx="84.457" fy="319.832" r="141.497" xlink:href="#b"/><radialGradient id="B" cx="377.004" cy="500.968" fx="377.004" fy="500.968" r="210.963" xlink:href="#j"/><linearGradient id="C" x1="194.714" x2="372.061" xlink:href="#f" y1="610.612" y2="290.022"/><path d="m159.131 996.988c-9.07-12.17-50.566-11.966-64.198-8.373-13.453 3.546-40.706 11.649-38.624 45.152 5.056 81.347 8.125 102.097 12.611 144 5.974 55.803 33.874 75.284 65.412 72.543 52.783-4.588 25.302-174.565 35.85-194.227 10.549-19.663-5.523-51.677-11.051-59.095z" fill="url(#a)"/><path d="m174.647 996.988c-9.07-12.17-50.566-11.966-64.198-8.373-13.453 3.546-40.706 11.649-38.624 45.152 5.056 81.347 8.125 102.097 12.611 144 5.974 55.803 33.874 75.284 65.412 72.543 52.783-4.588 25.302-174.565 35.85-194.227 10.549-19.663-5.523-51.677-11.051-59.095z" fill="#1f201b"/><path d="m237.741 1052.337s-35.193 10.406-60.632 17.053c-10.096 2.638-22.764-5.886-26.407-22.989-3.336-15.663 3.43-33.999 14.412-44.073 8.748-8.024 29.321-28.497 56.838-49.815z" fill="url(#b)"/><path d="m785.011 542.571c-60.36-29.701-89.774 104.138-89.691 152.798.04 23.113 20.021 15.258 36.379 58.737 39.47 104.908 42.947 124.547 42.947 124.547 17.852 17.16 100.158-51.338 113.554-64.229-15.018-174.346-24.279-233.023-103.19-271.853z" fill="#d43e60"/><path d="m410.427 679.269c-24.193 78.662-26.627 168.067-29.64 193.035-7.572 56.306 25.507 170.223 91.224 102.727 80.716-82.901 85.264-208.245 85.274-273.612.01-67.819-130.416-75.609-146.858-22.15z" fill="url(#c)"/><path d="m380.787 872.304c-54.1.336-142.035 64.419-188.257 104.196-7.315 14.136-8.859 33.593-3.323 52.342 9.992 33.835 30.345 42.442 30.345 42.442 51.095 0 186.742-28.757 252.459-96.253 80.716-82.901-64.691-102.727-91.224-102.727z" fill="url(#d)"/><path d="m784.912 825.534 30.134 81.362 77.097-48.03-7.145-80.562z" fill="url(#e)"/><path d="m572.619 374.729c15.293 19.877 17.105 71.414 2.468 101.978-21.537 44.975-35.833 63.809-35.833 63.809s-234.487 39.542-228.944 17.294c5.542-22.248 111.411-261.853 111.411-261.853 3.206-8.095 63.284 0 109.137 33.932 16.045 11.874 32.73 33.099 41.762 44.839z" fill="url(#f)"/><path d="m568.499 372.53c15.928 19.372 23.225 73.613 8.588 104.177-21.537 44.975-58.115 101.594-72.321 117.953-14.206 16.358-146.795 6.027-136.463-18.08s58.546-173.054 58.546-173.054l141.651-30.995z" fill="#ffbfc7"/><path d="m568.499 372.53c15.928 19.372 23.225 73.613 8.588 104.177-21.537 44.975-58.115 101.594-72.321 117.953-14.206 16.358-146.795 6.027-136.463-18.08s58.546-173.054 58.546-173.054l141.651-30.995z" fill="url(#h)"/><path d="m517.976 310.721c16.493-24.072 131.852 10.193 150.411 14.811 10.969 2.729 7.711 184.289-9.508 187.334s-161.431-55.684-161.431-55.684z" fill="url(#i)"/><path d="m792.329 453.03c-58.546 21.955-248.219.877-273.605-27.599-36.951-41.448-20.542-90.349-.748-112.596 22.125-24.865 217.178 27.991 241.923 40.178 43.421 21.386 90.976 78.061 32.43 100.016z" fill="#ffbfc7"/><path d="m792.329 453.03c58.546-21.955 156.886-181.325 162.319-206.365 5.449-25.113-52.017-52.553-75.89-34.49-15.669 11.855-112.486 100.505-126.894 160.354s30.024 84.416 40.465 80.5z" fill="#ffbfc7"/><path d="m878.758 212.175c-14.005 10.596-92.831 82.542-119.704 140.438-28-12.895-219.186-64.381-241.077-39.778-19.794 22.246-36.203 71.148.748 112.596 25.386 28.475 215.059 49.553 273.605 27.599 6.077-2.279 10.995-4.936 14.908-7.885 58.93-38.966 142.416-175.464 147.41-198.48 5.449-25.113-52.017-52.553-75.89-34.49z" fill="url(#j)"/><ellipse cx="471.745" cy="195.575" fill="url(#k)" rx="46.232" ry="55.895"/><ellipse cx="515.202" cy="195.575" fill="url(#l)" rx="43.029" ry="70.64" transform="matrix(.94783519 -.3187608 .3187608 .94783519 -35.466 174.429)"/><path d="m462.658 225.5h53.679v67.453h-53.679z" fill="url(#m)" transform="matrix(.93279637 .36040385 -.36040385 .93279637 126.321 -158.995)"/><path d="m452.036 198.568c23.116-10.611 14.021-47.747 14.021-47.747l21.095-40.674c-38.909-2.779-58.611-12.758-82.484-34.737-23.874-21.979-58.358-75.442-131.495-75.41-129.236.057-197.811 88.674-199.705 133.389 53.895-43.699 124.226-27.557 136.024-9.753-25.205-4.337-62.387-2.874-80.698 15.437 27.663 0 63.491 4.075 90.493 23.939 34.939 25.703 36.076 82.545 89.507 110.208 55.546 28.758 126.352 20.511 143.513 7.792 21.917-16.243 13.356-48.719 4.277-55.161-4.168-.379-16.011-2.179-20.084-9.853-5.619-10.585 3.864-23.268 15.537-17.432z" fill="url(#n)"/><path d="m408.203 170.657h69.745v22.829h-69.745z" fill="url(#o)" transform="matrix(.94783519 -.3187608 .3187608 .94783519 -34.924 150.734)"/><path d="m572.774 202.659-96.186 25.5c-5.904 1.565-11.943-2.2-13.29-8.285l-11.22-50.709c-.912-4.119.758-7.984 3.496-10.709 1.437-1.431 7.75-7.552 7.75-7.552l95.273-12.318c5.678-1.012 11.167 2.727 12.439 8.474l14.587 44.993s-4.056 4.509-6.497 6.649c-1.89 1.657-3.765 3.273-6.351 3.958z" fill="url(#p)"/><path d="m580.731 194.92-96.186 25.5c-5.904 1.565-11.943-2.2-13.29-8.285l-11.22-50.709c-1.347-6.086 2.54-12.047 8.554-13.119l97.965-17.46c5.678-1.012 11.167 2.727 12.439 8.474l9.442 42.67c1.272 5.747-2.127 11.453-7.703 12.931z" fill="#b6c8ea"/><path d="m577.894 192.576-89.49 23.645c-5.493 1.451-11.091-1.96-12.318-7.508l-10.228-46.225c-1.228-5.548 2.408-11.002 8.001-12.004l91.111-16.317c5.281-.946 10.368 2.445 11.527 7.683l8.607 38.896c1.159 5.238-2.022 10.458-7.209 11.829z" fill="#586c8f"/><path d="m577.894 192.576-89.49 23.645c-5.493 1.451-11.091-1.96-12.318-7.508l-10.228-46.225c-1.228-5.548 2.408-11.002 8.001-12.004l91.111-16.317c5.281-.946 10.368 2.445 11.527 7.683l8.607 38.896c1.159 5.238-2.022 10.458-7.209 11.829z" fill="url(#q)"/><path d="m414.52 152.337c99.621 47.147 203.874-28.152 166.358-85.752-4.168 10.611-34.863 36.126-56.084 36.505 8.716-8.337 11.795-21.916 9.474-26.653-26.147 27.663-66.55 34.739-86.025 29.701-16.67-4.312-49.276 38.837-33.722 46.198z" fill="url(#r)"/><path d="m436.499 216c-1.575-2.968-1.963-6.1-1.448-8.943-36.493-13.339-49.976-96.186-103.899-105.878 29.432 38.501 10.989 114.568 64.295 143.621 35.301 19.24 61.137-18.948 61.137-18.948-4.168-.379-16.011-2.179-20.084-9.853z" fill="url(#s)"/><path d="m435.051 209.057c-.228 0-.46-.039-.687-.122-16.518-6.038-28.299-25.403-40.772-45.906-.927-1.524-1.859-3.055-2.798-4.59-.577-.942-.28-2.173.663-2.75.942-.577 2.173-.28 2.75.662.94 1.538 1.874 3.072 2.803 4.599 12.099 19.887 23.526 38.671 38.728 44.228 1.038.379 1.571 1.528 1.192 2.565-.296.811-1.063 1.314-1.878 1.314z" fill="#d46b19"/><path d="m954.648 246.665c32.083-17.023 48.196-51.085 59.118-86.746 0 0 38.877-38.353 34.296-70.655-1.674-11.803-12.391-18.14-21.138-6.024s-28.906 49.425-32.817 54.659c-2.223-37.328 14.934-58.862 21.045-76.889 6.07-17.907-8.716-30.316-23.116-16.674-8.386 7.944-28.042 34.863-30.616 82.856 1.437-52.161 28.343-74.14 25.311-97.256-1.813-13.822-18.264-17.68-31.692 3.538-9.992 15.788-21.74 52.546-26.748 80.36-1.624-20.425-2.341-21.814-4.697-33.119 7.446-14.021 8.263-40.588 6.063-47.994-2.531-8.521-13.839-12.796-24.147 1.636-15.789 22.105-18.946 53.661-18.431 76.848.309 13.912 6.748 26.696 1.125 32.061s-17.508-28.994-37.011-37.15c-15.789-6.603-28.361 2.504-22.989 16.41 8.842 22.893 26.682 78.573 59.242 95.242" fill="#ffbfc7"/><path d="m960.03 211.851c-.879 0-1.685-.584-1.928-1.473-5.878-21.506-26.271-41.834-43.396-53.687-.908-.629-1.135-1.875-.506-2.783s1.875-1.135 2.783-.506c17.704 12.254 38.816 33.38 44.978 55.922.292 1.065-.336 2.165-1.402 2.457-.177.048-.354.071-.528.071z" fill="#e06e7e"/><path d="m981.386 173.525c-.381 0-.766-.109-1.107-.336-19.093-12.724-37.831-21.887-57.286-28.015-1.053-.332-1.638-1.455-1.307-2.509.332-1.053 1.453-1.639 2.509-1.307 19.82 6.243 38.891 15.566 58.301 28.502.919.613 1.168 1.854.555 2.773-.385.578-1.02.891-1.666.891z" fill="#e06e7e"/><path d="m961.421 129.193c-.019 0-.037 0-.056 0-1.104-.031-1.975-.95-1.944-2.054.817-29.675 9.716-49.597 16.866-65.605 1.158-2.593 2.252-5.041 3.26-7.418.431-1.016 1.604-1.491 2.623-1.06 1.017.431 1.491 1.605 1.06 2.622-1.023 2.412-2.125 4.877-3.291 7.487-7.006 15.684-15.725 35.204-16.521 64.084-.03 1.085-.919 1.945-1.998 1.945z" fill="#e06e7e"/><path d="m927.87 123.516c-.037 0-.075 0-.112-.003-1.103-.061-1.948-1.004-1.887-2.107l.423-7.681c.061-1.103 1.01-1.944 2.107-1.887 1.103.061 1.948 1.004 1.887 2.107l-.423 7.681c-.059 1.065-.941 1.89-1.995 1.89z" fill="#e06e7e"/><path d="m1029.983 725.965c-15.589-12.786-46.663-8.996-75.336 17.078-22.092 20.09-49.871 62.755-65.029 87.952-9.585 15.933-78.579 65.017-81.956 55.952-3.287-8.824-19.19 3.455-12.3 16.888 4.994 9.735 14.436 48.709 38.711 59.849l195.91-237.718z" fill="#1f201b"/><path d="m824.925 955.705c.061-42.218 66.257-68.12 93.844-104.132s66.285-131.067 104.15-128.282c8.595.632 31.524 12.458 31.524 12.458s14.546 65-6.543 104.797c-26.617 50.227-161.68 145.725-185.211 152.039-22.27-11.086-37.782-25.26-37.765-36.881z" fill="url(#t)"/><path d="m554.067 224.147c-2.382-3.644-9.541-7.027-13.405-3.657-5.714-2.069-11.004 4.857-15.446 10.13 6.979 13.842 26.241 17.393 28.851-6.473z" fill="#ff6270"/><path d="m525.216 230.62c14.593 7.159 21.666 7.774 28.851-6.473-7.989 0-17.652 1.326-28.851 6.473z" fill="#fff"/><path d="m646.815 497.588s-10.611-39.819-7.966-90.062c2.152-40.891 12.009-81.631 29.539-81.994-18.559-4.618-133.918-38.882-150.411-14.811l-20.528 146.461s119.54 48.68 153.936 55.096c-1.128-4.017-2.686-9.233-4.569-14.691z" fill="url(#u)"/><path d="m573.59 376.897c-12.161-18.593-26.688-35.133-42.733-47.007-45.853-33.932-105.93-42.027-109.137-33.932 0 0-84.693 191.682-106.541 248.071 110.388-73.091 247.677-53.631 244.077-32.384 5.022-9.16 11.019-20.714 17.831-34.938 14.636-30.564 10.231-78.822-3.498-99.81z" fill="url(#v)"/><path d="m843.59 964.882c.018-42.219 66.257-68.12 93.844-104.132s66.285-131.067 104.15-128.282c41.393 3.044 51.597 67.028 24.981 117.255-26.617 50.227-152.214 127.688-176.947 142.361-18.122 10.751-46.038-4.272-46.029-27.202z" fill="#ffeef8"/><path d="m541.486 754.358c-78.779 27.12-149.077 6.899-186.529-43.898s3.091-107.876 13.935-135.385c10.343-28.268 143.901-43.159 165.879-23.247l-35.747 55.057s121.239 120.353 42.461 147.474z" fill="url(#w)"/><path d="m785.011 542.571c-60.36-29.701-267.222 35.414-267.222 35.414-41.424 11.468-71.736 24.998-85.711 53.595-30.063 61.516 30.63 149.899 109.408 122.779 78.779-27.12 153.834-58.989 153.834-58.989s168.602-113.968 89.691-152.798z" fill="url(#x)"/><path d="m886.822 798.576c-14.278-162.108-25.34-218.377-101.811-256.006-60.36-29.701-89.774 104.138-89.691 152.798.04 23.113-.942 41.002 19.049 82.936 33.353 69.963 56.363 93.91 60.277 100.349 3.561-27.499 100.052-87.01 112.175-80.076z" fill="url(#y)"/><path d="m778.55 871.179c-.366 0-.735-.1-1.067-.31-.934-.59-1.212-1.826-.622-2.759 3.419-5.405 8.876-11.573 16.22-18.332.813-.748 2.077-.696 2.826.117.748.813.695 2.078-.117 2.826-7.086 6.521-12.317 12.418-15.548 17.526-.381.602-1.029.931-1.692.931z" fill="#c6204c"/><path d="m164.668 1098.514c-11.965 0-25.747-2.367-31.198-5.526-2.15-1.246-2.883-4-1.637-6.15 1.245-2.15 3.998-2.884 6.15-1.637 2.79 1.617 12.138 3.685 22.374 4.207 12.41.632 17.965-1.395 18.708-2.476 1.185-2.186 3.913-2.986 6.096-1.802 2.185 1.185 2.991 3.925 1.806 6.109-1.441 2.658-4.297 4.604-8.487 5.783-3.688 1.038-8.577 1.491-13.811 1.491z" fill="#fff"/><path d="m164.668 1133.01c-11.965 0-25.747-2.367-31.198-5.526-2.15-1.246-2.883-4-1.637-6.15 1.245-2.15 3.998-2.884 6.15-1.637 2.79 1.617 12.138 3.685 22.374 4.207 12.41.632 17.965-1.395 18.708-2.476 1.185-2.186 3.913-2.987 6.096-1.802 2.185 1.185 2.991 3.925 1.806 6.109-1.441 2.658-4.297 4.604-8.487 5.783-3.688 1.038-8.577 1.491-13.811 1.491z" fill="#fff"/><path d="m572.288 487.811c-.278 0-.56-.058-.828-.18-1.005-.458-1.449-1.644-.991-2.649 19.048-41.808 14.962-86.327 1.447-106.99-.604-.924-.345-2.164.579-2.769.923-.604 2.164-.345 2.769.579 14.1 21.556 18.486 67.728-1.155 110.838-.335.736-1.062 1.171-1.821 1.171z" fill="#022b61"/><path d="m324.17 540.315c-.674 0-1.333-.341-1.709-.958-.575-.943-.277-2.174.666-2.749 20.968-12.794 43.975-23.182 68.381-30.877 1.054-.331 2.177.252 2.509 1.306.333 1.053-.252 2.177-1.306 2.509-24.099 7.597-46.809 17.851-67.501 30.476-.325.198-.685.293-1.04.293z" fill="#022b61"/><path d="m648.394 504.336c-.873 0-1.675-.576-1.924-1.457-.057-.201-5.708-20.394-8.169-43.775-.116-1.099.681-2.083 1.779-2.198 1.101-.118 2.083.681 2.198 1.78 2.426 23.046 7.985 42.909 8.041 43.107.3 1.063-.318 2.168-1.381 2.468-.182.051-.365.076-.544.076z" fill="#022b61"/><path d="m472.012 596.416c-.736 0-1.444-.408-1.793-1.112-.491-.99-.086-2.189.904-2.68 11.83-5.864 26.489-11.128 46.134-16.567 1.067-.294 2.167.33 2.461 1.394s-.33 2.167-1.394 2.461c-19.394 5.369-33.828 10.548-45.425 16.296-.285.141-.588.208-.887.208z" fill="#c6204c"/><path d="m439.152 302.228c-13.639-30.396-45.755-35.604-96-18.27-42.27 14.583-109.268 58.579-109.268 58.579-6.015 17.433 41.434 146.224 68.555 129.865 27.12-16.358 82.426-56.574 99.442-69.739 31.208-24.146 53.756-63.697 37.271-100.436z" fill="url(#z)"/><path d="m424.241 380.632c-90.184 61.978-155.216 85.834-192.984 89.706-50.595 5.186-109.908-21.664-65.958-69.664 50.157-54.779 135.583-102.133 177.853-116.716 50.245-17.335 83.299-11.037 96 18.27 9.6 22.151 5.638 64.283-14.911 78.405z" fill="url(#A)"/><path d="m424.241 380.632c-90.184 61.978-155.216 85.834-192.984 89.706-50.595 5.186-109.908-21.664-65.958-69.664 50.157-54.779 135.583-102.133 177.853-116.716 50.245-17.335 83.299-11.037 96 18.27 9.6 22.151 5.638 64.283-14.911 78.405z" fill="url(#B)"/><g fill="#ffbfc7"><path d="m110.449 663.379s7.737 30.893 17.395 43.901c-3.083 15.903 1.924 35.317 9.644 43.635 11.169 12.033 20.864 4.83 22.241-3.398 2.454-14.671 4.124-67.179-22.489-97.508"/><path d="m90.585 674.135c-13.86 18.974-23.872 61.254-18.352 83.16 4.011 15.92 15.958 14.249 21.136 7.71 8.357-10.553 28.044-62.899 27.143-96.316"/><path d="m66.951 668.588c-14.293 18.65-22.653 58.2-17.639 80.228 3.644 16.008 15.49 14.498 20.953 8.194 7.111-8.206 23.571-62.051 26.731-93.178"/><path d="m141.732 662.501c1.773-13.772 3.215-71.696-11.632-89.17l-68.656 2.492c-19.052 25.161-20.515 51.376-17.47 77.687 2.336 14.448 24.516 21.024 47.557 22.532s49.106-5.027 50.202-13.541z"/><path d="m71.357 668.027s-49.293 51.736-57.104 54.074c-7.81 2.338-12.806-3.289-14.06-11.398-2.066-13.356 12.456-43.286 43.781-57.193"/></g><path d="m70.265 759.01c-.464 0-.931-.161-1.309-.489-.835-.723-.925-1.987-.202-2.821 6.321-7.295 21.107-54.704 25.513-86.021.154-1.094 1.163-1.858 2.259-1.702 1.094.154 1.855 1.165 1.702 2.259-4.247 30.183-19.079 79.576-26.452 88.083-.396.456-.952.69-1.512.69z" fill="#e06e7e"/><path d="m118.945 691.85c-.101 0-.203-.008-.305-.023-1.092-.167-1.841-1.188-1.674-2.28 1.19-7.773 1.71-14.773 1.548-20.805-.029-1.104.841-2.023 1.946-2.053 1.098-.035 2.023.842 2.053 1.945.168 6.271-.367 13.51-1.593 21.518-.151.99-1.003 1.698-1.975 1.698z" fill="#e06e7e"/><path d="m59.064 682.734c-.504 0-1.009-.19-1.398-.57-.79-.772-.804-2.039-.031-2.828 4.04-4.13 7.421-7.632 9.606-9.904.765-.796 2.031-.822 2.828-.055.796.766.821 2.032.055 2.828-2.19 2.278-5.58 5.788-9.63 9.928-.392.401-.911.602-1.43.602z" fill="#e06e7e"/><path d="m427.295 297.09c11.431-.214 29.713 2.942 49.673 9.053 27.27 8.35 48.855 19.516 53.237 26.99 0 0 10.7-11.98 8.926-16.902s-25.456-18.834-52.726-27.184c-19.96-6.111-45.083-10.238-49.673-9.053s-9.436 17.096-9.436 17.096z" fill="#0fb3e3"/><path d="m165.299 400.674c-55.571 60.928-98.335 146.202-103.071 171.6-4.735 25.399 23.39 44.87 59.121 27.221 35.73-17.65 101.55-78.063 111.781-137.855 9.006-48.629-17.78-115.842-67.832-60.966z" fill="url(#A)"/><path d="m439.152 302.228c-13.639-30.396-45.755-35.604-96-18.27-42.27 14.583-109.268 58.579-109.268 58.579 46.426 11.653 76.33 102.6 68.555 129.865 27.12-16.358 91.461-57.45 107.988-71.223 32.649-27.209 45.21-62.213 28.725-98.951z" fill="url(#C)"/><path d="m303.591 466.76c-.035 0-.071 0-.106-.003-1.103-.058-1.95-.999-1.892-2.102.203-3.867-.01-8.373-.633-13.392-.136-1.096.642-2.095 1.738-2.231 1.098-.134 2.095.642 2.231 1.738.652 5.251.874 9.994.658 14.095-.056 1.067-.939 1.895-1.996 1.895z" fill="#022b61"/><path d="m843.59 966.882c-1.104 0-2-.896-1.999-2.001.012-27.497 27.045-48.272 53.188-68.362 15.224-11.699 30.966-23.797 41.068-36.985 7.99-10.429 17.036-26.059 26.613-42.607 24.014-41.49 51.255-88.511 79.271-86.453 1.102.081 1.929 1.04 1.848 2.141-.081 1.102-1.037 1.928-2.141 1.848-25.556-1.893-53.25 45.997-75.516 84.467-9.644 16.663-18.753 32.402-26.899 43.036-10.423 13.606-26.378 25.867-41.807 37.724-25.375 19.5-51.615 39.665-51.625 65.192 0 1.104-.896 1.999-2 1.999z" fill="#d497d5"/><path d="m472.818 768.479c-28.903 0-55.854-6.872-79.102-20.52-.952-.559-1.271-1.785-.712-2.737.558-.952 1.783-1.272 2.737-.712 40.096 23.538 91.625 26.364 145.094 7.957 4.626-1.593 8.67-3.571 12.021-5.881.911-.626 2.155-.397 2.782.511.627.909.398 2.155-.511 2.782-3.649 2.516-8.02 4.659-12.99 6.37-23.727 8.168-47.1 12.23-69.319 12.23z" fill="#c6204c"/></svg>