<svg height="1152.544" viewBox="0 0 1525.601 1152.544" width="1525.601" xmlns="http://www.w3.org/2000/svg" xmlns:xlink="http://www.w3.org/1999/xlink"><linearGradient id="a" gradientUnits="userSpaceOnUse" x1="65.663" x2="356.432" y1="607.752" y2="743.098"><stop offset=".353" stop-color="#ff9f80" stop-opacity="0"/><stop offset=".591" stop-color="#d4656e"/></linearGradient><linearGradient id="b" gradientUnits="userSpaceOnUse" x1="1183.661" x2="799.504" y1="61.133" y2="133.363"><stop offset=".027" stop-color="#c6204c"/><stop offset=".443" stop-color="#ee3358" stop-opacity="0"/></linearGradient><linearGradient id="c" gradientUnits="userSpaceOnUse" x1="1015.87" x2="846.631" y1="258.646" y2="-30.062"><stop offset=".027" stop-color="#c6204c"/><stop offset=".16" stop-color="#ee3358" stop-opacity="0"/></linearGradient><linearGradient id="d" gradientUnits="userSpaceOnUse" x1="982.473" x2="723.063" y1="472.434" y2="186.967"><stop offset=".25" stop-color="#d4656e"/><stop offset=".525" stop-color="#ff9f80" stop-opacity="0"/></linearGradient><radialGradient id="e" cx="939.382" cy="334.84" gradientTransform="matrix(.81988217 .5725323 -.84391261 1.20850631 451.705 -607.546)" gradientUnits="userSpaceOnUse" r="165.122"><stop offset=".114" stop-color="#d4656e"/><stop offset=".649" stop-color="#ff9f80" stop-opacity="0"/></radialGradient><linearGradient id="f" gradientUnits="userSpaceOnUse" x1="1029.519" x2="1120.72" y1="332.778" y2="176.511"><stop offset=".189" stop-color="#d497d5"/><stop offset=".657" stop-color="#ffeef8" stop-opacity="0"/></linearGradient><linearGradient id="g" gradientUnits="userSpaceOnUse" x1="995.647" x2="1380.491" y1="480.588" y2="407.529"><stop offset=".114" stop-color="#d4656e"/><stop offset=".544" stop-color="#ff9f80" stop-opacity="0"/></linearGradient><linearGradient id="h" gradientUnits="userSpaceOnUse" x1="1259.73" x2="1365.337" y1="446.338" y2="495.031"><stop offset=".21" stop-color="#d4656e"/><stop offset=".544" stop-color="#ff9f80" stop-opacity="0"/></linearGradient><linearGradient id="i" gradientUnits="userSpaceOnUse" x1="1073.246" x2="793.123" y1="508.894" y2="498.401"><stop offset=".153" stop-color="#d497d5"/><stop offset=".394" stop-color="#ffeef8" stop-opacity="0"/></linearGradient><linearGradient id="j" gradientUnits="userSpaceOnUse" x1="949.197" x2="854.297" y1="433.895" y2="591.927"><stop offset=".205" stop-color="#d4656e"/><stop offset=".468" stop-color="#ff9f80" stop-opacity="0"/></linearGradient><linearGradient id="k" gradientUnits="userSpaceOnUse" x1="1152.999" x2="818.251" y1="587.638" y2="165.647"><stop offset=".074" stop-color="#d497d5"/><stop offset=".487" stop-color="#ffeef8" stop-opacity="0"/></linearGradient><linearGradient id="l" gradientUnits="userSpaceOnUse" x1="182.778" x2="498.434" y1="971.138" y2="971.676"><stop offset=".249" stop-color="#ff9f80" stop-opacity="0"/><stop offset=".492" stop-color="#d4656e"/></linearGradient><linearGradient id="m" gradientUnits="userSpaceOnUse" x1="151.234" x2="338.823" y1="1118.391" y2="890.515"><stop offset="0" stop-color="#0c5448"/><stop offset=".899" stop-color="#0f8454" stop-opacity="0"/></linearGradient><linearGradient id="n" gradientUnits="userSpaceOnUse" x1="43.706" x2="254.266" y1="745.978" y2="595.971"><stop offset=".164" stop-color="#0c5448"/><stop offset=".82" stop-color="#0f8454" stop-opacity="0"/></linearGradient><linearGradient id="o" gradientUnits="userSpaceOnUse" x1="600.017" x2="518.569" y1="1002.797" y2="129.258"><stop offset=".162" stop-color="#0c72c3"/><stop offset=".506" stop-color="#0fb3e3" stop-opacity="0"/></linearGradient><linearGradient id="p" gradientUnits="userSpaceOnUse" x1="731.992" x2="497.988" y1="866.707" y2="573.973"><stop offset=".293" stop-color="#0c72c3"/><stop offset=".562" stop-color="#0fb3e3" stop-opacity="0"/></linearGradient><linearGradient id="q" gradientUnits="userSpaceOnUse" x1="660.383" x2="617.104" y1="1429.259" y2="336.651"><stop offset=".212" stop-color="#0c72c3"/><stop offset=".617" stop-color="#0fb3e3" stop-opacity="0"/></linearGradient><linearGradient id="r" gradientUnits="userSpaceOnUse" x1="930.499" x2="308.885" y1="1253.359" y2="339.086"><stop offset=".212" stop-color="#0c72c3"/><stop offset=".453" stop-color="#0fb3e3" stop-opacity="0"/></linearGradient><path d="m287.502 731.664-75.159-24.785c-5.304-43.152 7.112-108.258 43.269-104.137 18.675-.742 42.747.721 69.96 3.903 119.59 13.986-38.07 125.019-38.07 125.019z" fill="#ff9f80"/><path d="m212.343 706.88c-41.776 12.41-111.285 21.558-162.692 21.639 0 0 133.318-142.954 152.361-155.183 23.199-14.898 53.599 29.407 53.599 29.407l-43.269 104.137z" fill="#ff9f80"/><path d="m325.572 606.646c-27.213-3.183-51.285-4.645-69.96-3.903 0 0-30.4-44.305-53.599-29.407-19.044 12.229-152.361 155.184-152.361 155.184 51.407-.081 120.916-9.229 162.692-21.639l75.159 24.785s157.66-111.032 38.07-125.019z" fill="url(#a)"/><path d="m1198.856 93.95c-9.38-14.857-94.691-40.115-156.22-14.201-42.408 17.861-89.964 87.34-158.952 43.399-33.8-21.529-40.84-68.888-1.509-123.148-65.943 32.73-98.478 109.139-37.359 171.134 1.572 1.779 3.203 3.508 4.879 5.197-1.89-.245-3.781-.496-5.678-.765-31.478-4.459-45.112-9.279-45.112-9.279 60.516 122.911 188.793 141.104 267.146 49.172 26.559-5.38 54.436-12.668 67.527-35.112 0 0-2.786-3.656-9.729-7.527 14.974-4.326 29.255-8.766 39.683-12.67 33.188-12.425 47.362-47.132 35.323-66.2z" fill="#ee3358"/><path d="m1163.533 160.149c33.188-12.425 47.362-47.131 35.323-66.199-9.38-14.857-94.691-40.115-156.22-14.201-42.408 17.861-89.964 87.341-158.952 43.399-33.801-21.529-40.84-68.888-1.509-123.148-65.943 32.73-98.478 109.139-37.359 171.134 44.531 50.38 131.428 65.173 202.839 21.871 0 0 80.324-19.545 115.877-32.855z" fill="url(#b)"/><path d="m1133.579 180.347s-14.124-18.592-58.308-16.328c-17.979.921-34.909 6.868-48.466 13.412-45.046 1.631-111.56 8.226-182.788-1.864-31.478-4.459-45.112-9.279-45.112-9.279 60.516 122.911 188.793 141.104 267.146 49.172 26.559-5.38 54.436-12.668 67.527-35.112z" fill="url(#c)"/><g fill="#ff9f80"><path d="m1108.558 239.624c58.796 42.036 82.712-11.207 74.333-93.511-11.816 7.191-26.447 16.721-44.809 11.968-2.042-5.057-11.613-10.212-17.09-.599-4.763 8.359.448 20.369 12.587 22.865-13.158 20.973-72.335 36.073-72.335 36.073l-22.315 34.855c-2.13 16.921 33.39 72.526 41.689 47.252 10.942-23.508 27.94-58.902 27.94-58.902"/><path d="m989.539 459.225c-63.307 38.004-275.984 88.965-302.832-7.999-3.453-14.284-1.636-28.002 3.542-41.35.651-1.088 1.313-2.168 1.976-3.248 13.256-21.503 28.856-41.493 46.476-59.578 13.968-.713 29.357 25.977 40.891 41.396 60.364-6.785 127.658-2.851 179.914 4.458l30.034 66.32z"/><path d="m1070.662 255.019-120.237 123-111.999 41.317c-54.131 45.945-148.612 77.625-153.271 22.137-.587-10.669 1.881-22.472 7.069-34.844 31.364-50.853 75.783-93.287 129.218-122.158 69.095-35.446 157.652-53.947 249.22-29.452z"/></g><path d="m921.897 388.542 28.528-10.524 120.237-123c-144.765-38.727-302.399 24.452-380.414 154.857-5.178 13.348-6.995 27.065-3.542 41.35 26.848 96.964 239.525 46.003 302.832 7.999l-30.034-66.32c-11.846-1.657-24.471-3.138-37.608-4.362z" fill="url(#d)"/><path d="m921.897 388.542 28.528-10.524 120.237-123c-144.765-38.727-302.399 24.452-380.414 154.857-5.178 13.348-6.995 27.065-3.542 41.35 26.848 96.964 239.525 46.003 302.832 7.999l-30.034-66.32c-11.846-1.657-24.471-3.138-37.608-4.362z" fill="url(#e)"/><path d="m838.424 421.333c-.814 0-1.579-.5-1.877-1.309-.382-1.036.148-2.186 1.184-2.568l112.001-41.312c1.035-.382 2.186.148 2.568 1.185.382 1.036-.148 2.186-1.185 2.568l-112.001 41.312c-.228.084-.462.124-.692.124z" fill="#d25931"/><path d="m1038.837 227.065c-10.101-.821-23.437 18.089-23.437 18.089l99.222 39.111 9.3-1.424c-10.726-23.015-26.873-51.044-85.085-55.776z" fill="#ffeef8"/><path d="m1038.837 227.065c-10.101-.821-23.437 18.089-23.437 18.089l99.222 39.111 9.3-1.424c-10.726-23.015-26.873-51.044-85.085-55.776z" fill="url(#f)"/><path d="m1507.497 280.193c6.811-7.662-.144-20.679-14.78-24.173 6.644-3.601-.628-20.833-17.445-22.297-7.044-1.075-20.868-1.067-29.741-.441 8.508-6.979 20.218-16.375 34.004-26.893 30.862-23.543 24.546-40.687 4.934-37.224-29.292 5.172-72.824 36.517-90.339 54.841-27.604 28.88-17.955 98.831-32.444 126.031-12.081 22.679-67.867 87.547-99.369 159.185-23.496 2.114-80.155 9.773-69.31 31.611 17.331 34.897 39.232 69.063 74.023 80.396 96.635 28.025 164.841-179.771 165.699-253.607 28.709-14.119 33.565-40.78 52.386-55.382 21.875-2.926 31.536-4.32 39.576-10.195 3.887-11.764-6.12-20.245-17.195-21.851z" fill="#ff9f80"/><path d="m1296.162 622.749c-83.745 13.496-253.444-144.538-206.35-358.48l.33-.83c44.718 17.661 101.501 53.439 141.98 122 17.939 30.384 39.839 81.416 45.29 92.71 51.33 49.05 73.46 134.19 18.75 144.6z" fill="#ff9f80"/><path d="m1296.162 622.749c-83.745 13.496-253.444-144.538-206.35-358.48l.33-.83c44.718 17.661 101.501 53.439 141.98 122 17.939 30.384 39.839 81.416 45.29 92.71 51.33 49.05 73.46 134.19 18.75 144.6z" fill="url(#g)"/><path d="m1361.687 350.038c-10.307 19.349-52.429 69.41-84.14 128.184 3.359 8.869 6.598 18.562 9.581 29.271 10.454 37.536 9.965 97.995-20.097 113.737 96.635 28.025 164.841-179.771 165.699-253.607-1.547-20.585-56.555-44.784-71.043-17.584z" fill="url(#h)"/><path d="m1524.692 302.044c-3.813 11.949-15.433 22.855-40.087 24.956-26.388 2.249-18.584-20.328-6.205-25.559s53.826-23.002 46.293.603z" fill="#ff9f80"/><path d="m1475.072 328.508c-.23 0-.464-.04-.693-.125-1.036-.383-1.565-1.533-1.183-2.569 1.756-4.753 4.4-10.271 10.694-15.155.279-.217.611-.355.961-.402 13.46-1.801 22.035-3.002 28.432-4.924 1.057-.317 2.173.282 2.491 1.34s-.282 2.173-1.34 2.491c-6.598 1.982-15.165 3.198-28.509 4.985-5.2 4.187-7.457 8.937-8.978 13.052-.298.807-1.063 1.307-1.876 1.307z" fill="#d25931"/><path d="m1417.066 243.815c-.677 0-1.337-.344-1.713-.965-.572-.945-.27-2.174.675-2.747 7.396-4.478 17.878-7.675 29.513-9.003 1.094-.125 2.088.663 2.214 1.761.125 1.097-.663 2.088-1.761 2.214-11.074 1.264-20.98 4.265-27.895 8.451-.324.196-.681.29-1.034.29z" fill="#d25931"/><path d="m1431.184 266.099c-.786 0-1.532-.466-1.85-1.238-.421-1.021.065-2.19 1.087-2.611 7.767-3.203 35.237-13.259 62.66-8.195 1.086.201 1.804 1.244 1.604 2.33s-1.241 1.801-2.33 1.604c-20.932-3.866-44.931 1.578-60.409 7.96-.249.103-.507.151-.761.151z" fill="#d25931"/><path d="m1020.942 558.904c-9.644 10.123-61.839-9.482-142.31-80.764-53.181-47.108 30.445-40.506 93.246 15.078 27.314 24.175 57.29 57.052 49.064 65.686z" fill="#ffeef8"/><path d="m1020.942 558.904c-9.644 10.123-61.839-9.482-142.31-80.764-53.181-47.108 30.445-40.506 93.246 15.078 27.314 24.175 57.29 57.052 49.064 65.686z" fill="url(#i)"/><path d="m1449.465 291.933c-.756 0-1.48-.431-1.818-1.163-.462-1.003-.024-2.191.979-2.654 17.175-7.918 42.602-12.178 59.144-9.904 1.094.15 1.86 1.159 1.709 2.253s-1.155 1.862-2.253 1.709c-15.881-2.18-40.354 1.935-56.925 9.574-.271.125-.556.184-.836.184z" fill="#d25931"/><path d="m837.596 441.357s36.023-8.069 96.062 27.824c39.046 23.343 72.508 63.58 72.508 63.58l-25.725 35.881s-19.379-35.522-82.995-78.461c-49.469-33.39-75.618-37.923-75.618-37.923l15.767-10.901z" fill="#ff9f80"/><path d="m837.596 441.357s36.023-8.069 96.062 27.824c39.046 23.343 72.508 63.58 72.508 63.58l-25.725 35.881s-19.379-35.522-82.995-78.461c-49.469-33.39-75.618-37.923-75.618-37.923l15.767-10.901z" fill="url(#j)"/><path d="m1106.162 460.979c-24.8 34.26-54.79 66.04-85.22 97.93-29.38-51.86-135.63-115.18-183.35-117.55 48.21-40.9 64.38-104.79 69.6-136.35.51-3.04.91-5.77 1.23-8.16 1-7.49 5.21-14.14 11.49-18.32 33-21.96 72.16-30.25 95.41-33.37 31.84 2.15 66.89 14.54 82.26 21.29-23 66.77-15.87 136.87 8.58 194.53z" fill="#ffeef8"/><path d="m1106.162 460.979c-24.8 34.26-54.79 66.04-85.22 97.93-1.969-3.476-4.283-7.003-6.902-10.559-1.424-1.934-2.939-3.878-4.537-5.826-1.782-2.173-3.668-4.353-5.649-6.534-41.703-45.926-125.42-92.601-166.262-94.63 48.21-40.9 64.38-104.79 69.6-136.35.51-3.04.91-5.77 1.23-8.16 1-7.49 5.21-14.14 11.49-18.32 33-21.96 72.16-30.25 95.41-33.37 12.769.862 26.055 3.372 38.381 6.504 18.408 4.677 34.674 10.744 43.879 14.786-23 66.77-15.87 136.87 8.58 194.53z" fill="url(#k)"/><path d="m1097.581 268.449c-.269 0-.542-.054-.803-.169-4.574-2.009-21.235-9.005-43.568-14.679-13.795-3.505-26.588-5.674-38.022-6.446-1.102-.075-1.935-1.028-1.861-2.13s1.029-1.934 2.13-1.861c11.675.789 24.708 2.996 38.738 6.561 22.63 5.75 39.545 12.854 44.191 14.894 1.011.444 1.471 1.624 1.027 2.635-.329.75-1.063 1.196-1.832 1.196z" fill="#813b82"/><path d="m1014.041 550.349c-.614 0-1.22-.282-1.612-.814-1.39-1.887-2.894-3.819-4.473-5.743-1.735-2.116-3.613-4.289-5.583-6.459-.742-.818-.681-2.083.137-2.825s2.083-.681 2.825.137c2.015 2.219 3.938 4.443 5.714 6.611 1.622 1.978 3.17 3.965 4.601 5.909.655.889.465 2.141-.425 2.796-.357.263-.772.39-1.184.39z" fill="#813b82"/><path d="m1287.126 509.492c-.908 0-1.729-.622-1.946-1.543-.033-.142-3.401-14.348-9.61-29.021-.431-1.017.045-2.191 1.063-2.621 1.018-.432 2.191.045 2.621 1.063 6.347 14.999 9.787 29.521 9.821 29.666.252 1.076-.415 2.151-1.49 2.404-.154.036-.308.054-.458.054z" fill="#d25931"/><path d="m367.704 991.488-46.841 3.556c-20.005-36.975-31.805-99.968 2.199-109.02 5.916-2.595 23.491-5.297 30.747-7.855 16.876 29.935 19.943 82.465 13.894 113.319z" fill="#ff9f80"/><path d="m320.864 995.044c-33.229 25.916-92.575 58.683-138.825 76.9 0 0 69.565-175.746 82.393-193.476 15.627-21.599 58.631 7.557 58.631 7.557l-2.199 109.02z" fill="#ff9f80"/><path d="m353.81 878.169c-7.256 2.558-24.831 5.26-30.747 7.855 0 0-43.004-29.156-58.631-7.557-12.828 17.73-82.393 193.476-82.393 193.476 46.25-18.216 105.596-50.983 138.826-76.899l46.841-3.556c6.049-30.854 2.982-83.384-13.894-113.319z" fill="url(#l)"/><path d="m326.127 881.127-99.179 128.868 2.557 40.508s-3.165 5.547-8.012 14.025c-11.937 20.879-34.079 59.539-44.292 76.94-3.557 6.06-9.935 10.049-16.923 10.794 0 0 27.724-98.055 33.737-116.279 13.531-41.009 14.903-46.916 32.417-60.505 3.759-2.917 19.157-3.766 24.213-9.853l66.887-87.72z" fill="#0ca069"/><path d="m326.127 881.127-99.179 128.868 2.557 40.508s-3.165 5.547-8.012 14.025c-11.937 20.879-34.079 59.539-44.292 76.94-3.557 6.06-9.935 10.049-16.923 10.794 0 0 27.724-98.055 33.737-116.279 13.531-41.009 14.903-46.916 32.417-60.505 3.759-2.917 19.157-3.766 24.213-9.853l66.887-87.72z" fill="url(#m)"/><path d="m240.181 875.466 25.221 26.456-2.325 7.288-37.907-12.092-16.988-5.419s-2.157-2.661-.404-8.159 5.053-6.418 5.053-6.418l13.12 4.185c6.155 1.963 12.503-.643 14.229-5.842z" fill="#1f201b"/><path d="m162.383 1151.47c2.184-1.127 3.942-3.091 4.752-5.629l42.492-133.207c1.963-6.152 5.57-11.651 10.433-15.9l23.768-20.772c4.311-3.768 7.51-8.643 9.25-14.098l4.242-13.299 20.358-63.821c3.237-10.147-2.365-20.996-12.512-24.233-10.147-3.237-20.996 2.365-24.233 12.512l-20.358 63.821-4.238 13.286c-1.743 5.463-4.948 10.344-9.269 14.114l-23.866 20.823c-3.655 3.189-6.602 7.083-8.677 11.43-1.125 2.359-1.851 4.886-2.32 7.457-3.41 18.671-21.794 119.683-23.796 137.917-.499 4.55 2.276 8.823 6.642 10.215 2.529.807 5.148.51 7.332-.617z" fill="#1f201b"/><path d="m266.627 606.224-141.615 79.929-13.458 38.292s-5.079 3.871-12.852 9.785c-19.141 14.563-54.616 41.513-70.812 53.547-5.64 4.191-13.07 5.374-19.794 3.332 0 0 63.801-79.454 76.451-93.885 28.466-32.474 32.035-37.376 53.464-43.051 4.6-1.218 19.107 4.011 26.138.38l95.822-54.651 6.655 6.322z" fill="#0f8454"/><path d="m266.627 606.224-141.615 79.929-13.458 38.292s-5.079 3.871-12.852 9.785c-19.141 14.563-54.616 41.513-70.812 53.547-5.64 4.191-13.07 5.374-19.794 3.332 0 0 63.801-79.454 76.451-93.885 28.466-32.474 32.035-37.376 53.464-43.051 4.6-1.218 19.107 4.011 26.138.38l95.822-54.651 6.655 6.322z" fill="url(#n)"/><path d="m189.709 567.464 12.893 34.202-4.985 5.803-30.179-25.929-13.525-11.62s-.948-3.292 2.813-7.669 7.158-3.936 7.158-3.936l10.445 8.974c4.9 4.21 11.762 4.289 15.38.175z" fill="#1f201b"/><path d="m10.344 791.202c2.45-.185 4.836-1.307 6.572-3.327l91.118-106.052c4.208-4.898 9.676-8.552 15.812-10.566l29.991-9.846c5.44-1.786 10.288-5.026 14.019-9.368l9.097-10.588 43.656-50.811c6.941-8.078 6.018-20.253-2.06-27.194-8.078-6.941-20.253-6.018-27.194 2.06l-43.656 50.811-9.088 10.578c-3.737 4.349-8.594 7.592-14.043 9.376l-30.101 9.855c-4.61 1.509-8.844 3.944-12.45 7.136-1.957 1.732-3.611 3.776-5.047 5.96-10.427 15.859-66.784 101.68-75.744 117.687-2.236 3.994-1.348 9.011 2.127 11.997 2.013 1.73 4.541 2.479 6.991 2.294z" fill="#1f201b"/><path d="m894.82 588.884c-93.913 64.63-252.649 185.399-327.085 198.248-73.737 12.728-199.838 23.953-339.563 17.804-54.46-2.397 13.104-218.115 27.024-216.812 77.289 7.231 213.773 30.495 296.001 51.45 98.908-67.728 132.339-123.113 178.348-152.749s285.14 19.57 165.275 102.059z" fill="#0fb3e3"/><path d="m894.82 588.884c-93.913 64.63-252.649 185.399-327.085 198.248-73.737 12.728-199.838 23.953-339.563 17.804-54.46-2.397 13.104-218.115 27.024-216.812 77.289 7.231 213.773 30.495 296.001 51.45 98.908-67.728 132.339-123.113 178.348-152.749s285.14 19.57 165.275 102.059z" fill="url(#o)"/><path d="m894.82 588.884c-93.913 64.63-252.649 185.399-327.085 198.248-73.737 12.728-199.838 23.953-339.563 17.804-54.46-2.397 13.104-218.115 27.024-216.812 77.289 7.231 213.773 30.495 296.001 51.45 98.908-67.728 132.339-123.113 178.348-152.749s285.14 19.57 165.275 102.059z" fill="url(#p)"/><path d="m951.076 655.01c-58.848 102.932-133.013 245.618-198.738 282.012-66.082 36.592-328.643 128.108-410.001 155.242-41.71 7.472-53.789-205.01-20.808-217.512 0 0 153.862-63.277 340.395-72.698 52.907-110.957 83.358-177.214 109.784-225.139 29.113-52.796 256.934-57.577 179.368 78.094z" fill="#0fb3e3"/><path d="m951.076 655.01c-58.848 102.932-133.013 245.618-198.738 282.012-66.082 36.592-328.643 128.108-410.001 155.242-41.71 7.472-53.789-205.01-20.808-217.512 0 0 153.862-63.277 340.395-72.698 52.907-110.957 83.358-177.214 109.784-225.139 29.113-52.796 256.934-57.577 179.368 78.094z" fill="url(#q)"/><path d="m951.076 655.01c-58.848 102.932-133.013 245.618-198.738 282.012-66.082 36.592-328.643 128.108-410.001 155.242-41.71 7.472-53.789-205.01-20.808-217.512 0 0 153.862-63.277 340.395-72.698 52.907-110.957 83.358-177.214 109.784-225.139 29.113-52.796 256.934-57.577 179.368 78.094z" fill="url(#r)"/><path d="m726.27 488.313c51.181-36.706 83.032-37.903 95.56-36.055 35.079 5.176 125.099 47.807 156.478 110.201 11.503 22.873-27.232 92.551-27.232 92.551-89.359 88.417-290.729-106.232-224.806-166.698z" fill="#0fb3e3"/><path d="m699.343 725.302c-.293 0-.59-.064-.872-.201-.994-.482-1.408-1.678-.927-2.672l55.749-114.92c-1.364-2.592-5.286-10.187-7.821-16.525-.41-1.025.089-2.189 1.114-2.6 1.024-.411 2.189.088 2.6 1.114 2.96 7.399 8.061 16.93 8.112 17.025.303.565.317 1.242.037 1.819l-56.192 115.833c-.346.712-1.059 1.127-1.801 1.127z" fill="#0b2575"/></svg>