<?xml version="1.0" encoding="utf-8"?>
<svg width="687" height="357" viewBox="0 0 687 357" fill="none" xmlns="http://www.w3.org/2000/svg">
  <path d="M687 178.5C687 79.6492 600.427 0 494.64 0C430.073 0 388.853 30.197 359.977 64.5239C365.452 72.7837 366.847 74.1248 370.98 82.3845C376.455 91.9854 399.855 137.308 403.935 146.908C403.935 146.908 405.33 145.568 405.33 145.568C430.073 101.586 453.42 82.3845 494.64 82.3845C555.074 82.3845 604.56 124.971 604.56 178.5C604.56 232.029 555.074 274.615 494.64 274.615C432.327 274.615 406.779 220.39 377.26 157.582C342.48 83.7256 303.031 0 192.36 0C85.8213 2.03809 0 80.0784 0 178.5C0 277.351 86.5728 357 192.36 357C256.927 357 298.147 328.144 327.023 292.476C321.495 284.216 320.153 282.875 316.02 274.615C310.545 263.62 287.145 218.298 283.065 208.697C283.065 208.697 281.67 210.092 281.67 210.092C256.927 255.414 233.58 274.615 192.36 274.615C131.926 274.615 82.4399 232.029 82.4399 178.5C82.4399 125.079 131.711 82.5991 191.984 82.3845C254.727 82.5991 280.972 137.093 311.404 200.222C346.667 273.274 386.599 356.035 494.64 356.893C494.64 356.946 494.64 356.946 494.64 357C494.908 357 495.23 356.946 495.499 356.946C495.821 356.946 496.089 357 496.357 357C496.357 357 496.357 356.893 496.357 356.893C601.393 356.035 687 276.814 687 178.5Z" fill="#A2F23E" />
</svg>