<?xml version="1.0" encoding="utf-8"?>
<svg width="388.002" height="298" viewBox="0 0 388.002 298" fill="none" xmlns="http://www.w3.org/2000/svg">
  <defs>
    <filter color-interpolation-filters="sRGB" x="-374" y="-158" width="376" height="160" id="filter_1">
      <feFlood flood-opacity="0" result="BackgroundImageFix_1" />
      <feColorMatrix type="matrix" values="0 0 0 0 0 0 0 0 0 0 0 0 0 0 0 0 0 0 1 0" in="SourceAlpha" />
      <feOffset dx="0" dy="4" />
      <feGaussianBlur stdDeviation="2" />
      <feColorMatrix type="matrix" values="0 0 0 0 0 0 0 0 0 0 0 0 0 0 0 0 0 0 0.251 0" />
      <feBlend mode="normal" in2="BackgroundImageFix_1" result="Shadow_2" />
      <feBlend mode="normal" in="SourceGraphic" in2="Shadow_2" result="Shape_3" />
    </filter>
    <filter color-interpolation-filters="sRGB" x="-184" y="-158" width="186" height="160" id="filter_2">
      <feFlood flood-opacity="0" result="BackgroundImageFix_1" />
      <feColorMatrix type="matrix" values="0 0 0 0 0 0 0 0 0 0 0 0 0 0 0 0 0 0 1 0" in="SourceAlpha" />
      <feOffset dx="0" dy="4" />
      <feGaussianBlur stdDeviation="2" />
      <feColorMatrix type="matrix" values="0 0 0 0 0 0 0 0 0 0 0 0 0 0 0 0 0 0 0.251 0" />
      <feBlend mode="normal" in2="BackgroundImageFix_1" result="Shadow_2" />
      <feBlend mode="normal" in="SourceGraphic" in2="Shadow_2" result="Shape_3" />
    </filter>
  </defs>
  <g>
    <g transform="translate(193 0)">
      <path d="M185 48.1C185 21.4629 161.687 0 133.2 0C115.813 0 104.713 8.13711 96.9371 17.3871C98.4113 19.6129 98.7871 19.9742 99.9 22.2C101.374 24.7871 107.676 37 108.774 39.5871C108.774 39.5871 109.15 39.2258 109.15 39.2258C115.813 27.3742 122.1 22.2 133.2 22.2C149.474 22.2 162.8 33.6758 162.8 48.1C162.8 62.5242 149.474 74 133.2 74C116.42 74 109.54 59.3879 101.591 42.4633C92.2254 22.5613 81.6023 0 51.8 0C23.1105 0.549221 0 21.5785 0 48.1C0 74.7371 23.3129 96.2 51.8 96.2C69.1871 96.2 80.2871 88.4242 88.0629 78.8129C86.5742 76.5871 86.2129 76.2258 85.1 74C83.6258 71.0371 77.3242 58.8242 76.2258 56.2371C76.2258 56.2371 75.85 56.6129 75.85 56.6129C69.1871 68.8258 62.9 74 51.8 74C35.5258 74 22.2 62.5242 22.2 48.1C22.2 33.7047 35.468 22.2578 51.6988 22.2C68.5945 22.2578 75.6621 36.9422 83.857 53.9535C93.3527 73.6387 104.106 95.9399 133.2 96.1711C133.2 96.1856 133.2 96.1856 133.2 96.2C133.272 96.2 133.359 96.1856 133.431 96.1856C133.518 96.1856 133.59 96.2 133.662 96.2C133.662 96.2 133.662 96.1711 133.662 96.1711C161.947 95.9399 185 74.5926 185 48.1Z" fill="#A2F23E" transform="translate(0 44.4)" />
    </g>
    <g filter="url(#filter_1)" transform="translate(6 128)">
      <path d="M48.6992 128.839Q37.8623 128.839 29.1326 125.16Q20.4028 121.48 14.0479 114.925Q7.3584 108.102 3.81299 99.0374C1.44938 92.9946 0.267578 86.5615 0.267578 79.7383C0.267578 72.8704 1.44938 66.4263 3.81299 60.4058Q7.3584 51.375 14.0479 44.4849Q20.4028 37.9961 29.1326 34.2834Q37.8623 30.5708 48.6992 30.5708Q59.1348 30.5708 68.1655 34.1831Q75.457 37.0596 81.1431 41.8091L65.356 63.2153Q59.4692 57.1279 48.6992 57.1279Q38.665 57.1279 32.9121 63.0146Q26.8247 69.5703 26.8247 79.7383Q26.8247 89.8394 32.9121 96.395Q38.665 102.282 48.6992 102.282Q58.9341 102.282 64.687 96.8633L79.939 118.604Q74.3198 123.019 67.1621 125.628Q58.5327 128.839 48.6992 128.839ZM130.425 128.839Q119.855 128.839 111.36 125.093Q102.864 121.347 96.7097 114.657Q90.2878 107.834 86.9431 98.8367Q83.5983 89.8394 83.5983 79.7383Q83.5983 69.5703 86.9431 60.573Q90.2878 51.5757 96.7097 44.7524Q102.864 38.1299 111.36 34.3503Q119.855 30.5708 130.425 30.5708Q140.994 30.5708 149.489 34.3503Q157.985 38.1299 164.139 44.7524Q170.561 51.5757 173.906 60.573Q177.251 69.5703 177.251 79.7383Q177.251 89.8394 173.906 98.8367Q170.561 107.834 164.139 114.657Q157.985 121.347 149.489 125.093Q140.994 128.839 130.425 128.839ZM130.425 102.282Q139.656 102.282 144.874 96.6626Q150.694 90.04 150.694 79.7383Q150.694 69.3696 144.874 62.814Q139.656 57.1279 130.425 57.1279Q121.193 57.1279 115.975 62.814Q110.155 69.3696 110.155 79.7383Q110.155 90.04 115.975 96.6626Q121.193 102.282 130.425 102.282ZM229.676 127.902L192.215 127.902L192.215 31.5073L229.676 31.5073Q250.748 31.5073 264.261 45.02Q271.017 51.7764 274.562 60.7068Q278.108 69.6372 278.108 79.7383Q278.108 89.8394 274.562 98.7363Q271.017 107.633 264.261 114.39C255.252 123.398 243.724 127.902 229.676 127.902ZM229.676 101.412Q239.844 101.412 245.53 95.5254Q251.551 89.3711 251.551 79.7383Q251.551 70.0386 245.53 63.8843Q239.844 57.9976 229.676 57.9976L218.772 57.9976L218.772 101.412L229.676 101.412ZM363.847 127.902L292.738 127.902L292.738 31.5073L363.847 31.5073L363.847 57.9976L319.228 57.9976L319.228 68.5L354.08 68.4331L354.08 90.9097L319.228 90.9766L319.228 101.412L363.847 101.412L363.847 127.902Z" fill="#FFFFFF" />
    </g>
    <g filter="url(#filter_2)" transform="translate(6 12)">
      <path d="M32.8452 68.5L45.02 68.4331Q48.2978 68.4331 51.5757 67.8311Q54.8535 67.229 57.061 65.958Q59.2686 64.687 59.2686 62.7471Q59.2686 60.3389 54.9204 59.1682Q50.5723 57.9976 45.02 57.9976L32.8452 57.9976L32.8452 68.5ZM49.9033 101.412Q53.4487 101.412 56.6597 100.844Q59.8706 100.275 61.9109 99.0708Q63.9512 97.8667 63.9512 95.9268Q63.9512 93.5186 59.9041 92.2141Q55.8569 90.9097 49.9033 90.9097L32.8452 90.9097L32.8452 101.412L49.9033 101.412ZM49.9033 127.902L6.28809 127.902L6.28809 31.5073L45.02 31.5073Q62.4126 31.5073 73.3164 38.3975Q85.8257 46.3579 85.8257 62.4126Q85.8257 71.644 82.2134 77.1294Q85.1567 79.6045 87.2974 83.0161Q90.6421 88.5015 90.6421 96.9971Q90.6421 112.717 77.397 121.079Q66.2925 127.902 49.9033 127.902ZM125.829 58.0645L125.829 70.1724L135.863 70.1724Q144.492 70.1724 148.573 67.4966Q150.044 66.5601 150.044 64.1519Q150.044 61.6768 148.573 60.7402Q144.492 58.0645 135.863 58.0645L125.829 58.0645ZM125.829 96.7295L125.829 127.902L99.2715 127.902L99.2715 31.5073L135.863 31.5073Q152.787 31.5073 163.825 39.1333Q176.602 47.9634 176.602 64.1519Q176.602 80.2734 163.825 89.1704Q161.149 90.9766 158.139 92.3813L188.509 127.902L154.259 127.902L127.635 96.7295L125.829 96.7295Z" fill="#FFFFFF" />
    </g>
  </g>
</svg>