<?xml version="1.0" encoding="UTF-8"?>
<svg version="1.1" xmlns="http://www.w3.org/2000/svg" width="2304" height="1440">
<path d="M0 0 C760.32 0 1520.64 0 2304 0 C2304 475.2 2304 950.4 2304 1440 C1543.68 1440 783.36 1440 0 1440 C0 964.8 0 489.6 0 0 Z " fill="#111115" transform="translate(0,0)"/>
<path d="M0 0 C428.34 0 856.68 0 1298 0 C1292.37257319 5.62742681 1292.37257319 5.62742681 1288.77734375 7.8671875 C1287.99697754 8.35711182 1287.21661133 8.84703613 1286.41259766 9.35180664 C1285.18742432 10.10578735 1285.18742432 10.10578735 1283.9375 10.875 C1283.09493652 11.4002124 1282.25237305 11.9254248 1281.38427734 12.46655273 C1275.79178634 15.93792007 1270.15690555 19.32556285 1264.4453125 22.59765625 C1262.71159177 23.59191463 1260.99975916 24.62478812 1259.3046875 25.68359375 C1257 27 1257 27 1255 27 C1255 27.66 1255 28.32 1255 29 C1252.03 29.99 1252.03 29.99 1249 31 C1249 31.66 1249 32.32 1249 33 C1248.071875 33.515625 1247.14375 34.03125 1246.1875 34.5625 C1238.15431652 39.16214538 1230.47714513 44.26863834 1222.99609375 49.71484375 C1221 51 1221 51 1219 51 C1219 51.66 1219 52.32 1219 53 C1217.58227539 54.27758789 1217.58227539 54.27758789 1215.59765625 55.72265625 C1214.87586182 56.25737549 1214.15406738 56.79209473 1213.41040039 57.34301758 C1212.63559326 57.91044678 1211.86078613 58.47787598 1211.0625 59.0625 C1205.07230522 63.52299251 1199.62310453 67.97638117 1194.56640625 73.48828125 C1193 75 1193 75 1191 75 C1190.74476562 75.59296875 1190.48953125 76.1859375 1190.2265625 76.796875 C1188.87376259 79.2267449 1187.51658724 80.49236266 1185.375 82.25 C1181.56216415 85.45751337 1178.09921113 88.88987198 1174.6640625 92.49609375 C1173 94 1173 94 1171 94 C1170.59201172 94.88365234 1170.59201172 94.88365234 1170.17578125 95.78515625 C1167.24791632 101.3004367 1162.37184455 105.62815545 1158 110 C1145.2008908 122.85199808 1135.97570164 138.76332297 1128 154.9375 C1124.24495239 162.5520484 1124.24495239 162.5520484 1122.5859375 165.5859375 C1108.85869381 190.82635332 1107.09517679 220.43993993 1108.8125 248.4375 C1108.87355927 249.44265152 1108.87355927 249.44265152 1108.93585205 250.46810913 C1109.4452108 258.56383377 1110.31568282 266.52303228 1111.52514648 274.54174805 C1112.33000533 280.40335503 1112.72790987 286.28648033 1113.125 292.1875 C1113.21136719 293.36763672 1113.29773437 294.54777344 1113.38671875 295.76367188 C1115.13803503 320.87977126 1109.60761292 345.27645197 1093 365 C1092.30261719 365.89460938 1091.60523438 366.78921875 1090.88671875 367.7109375 C1083.21333275 377.44237197 1074.44850043 386.00511502 1065 394 C1064.10410156 394.78503906 1063.20820312 395.57007813 1062.28515625 396.37890625 C1052.95361684 404.50116511 1043.03514075 411.77603731 1033 419 C1032.07445312 419.66773438 1031.14890625 420.33546875 1030.1953125 421.0234375 C1026.3710817 423.73612717 1022.48341756 426.34736201 1018.578125 428.94140625 C1017.77511963 429.47491699 1016.97211426 430.00842773 1016.14477539 430.55810547 C1014.54164632 431.62112419 1012.93674341 432.68147405 1011.32983398 433.73876953 C1007.39692427 436.33970885 1003.67907534 439.04637614 1000 442 C998.62555211 442.80834876 997.22953959 443.58138201 995.8125 444.3125 C991.54579318 446.62187267 987.64682305 449.27241733 983.69921875 452.0859375 C980.65826158 454.2423326 977.58813685 456.34922586 974.5 458.4375 C973.4996875 459.11683594 972.499375 459.79617188 971.46875 460.49609375 C969 462 969 462 967 462 C967 462.66 967 463.32 967 464 C964.8828125 465.5078125 964.8828125 465.5078125 962.125 467.125 C961.22007812 467.66382813 960.31515625 468.20265625 959.3828125 468.7578125 C957 470 957 470 955 470 C955 470.66 955 471.32 955 472 C936.64864865 486 936.64864865 486 931 486 C931 486.66 931 487.32 931 488 C929.17248549 489.20060015 927.28512159 490.31072301 925.375 491.375 C920.2765472 494.24866174 920.2765472 494.24866174 915.375 497.4375 C913 499 913 499 911 499 C911 499.66 911 500.32 911 501 C909.58569336 502.078125 909.58569336 502.078125 907.58984375 503.25 C906.85483643 503.68836182 906.1198291 504.12672363 905.36254883 504.57836914 C904.16214966 505.28207642 904.16214966 505.28207642 902.9375 506 C895.08017741 510.70014833 887.42794697 515.61987077 879.84863281 520.75292969 C877.28392418 522.48305802 874.70482061 524.19118424 872.12646484 525.90087891 C864.92122699 530.68199242 857.80015169 535.5677237 850.765625 540.59765625 C845.49631163 544.33745416 840.12214815 547.88241286 834.6875 551.375 C826.34724324 556.73593884 818.16122852 562.2794396 810.1171875 568.078125 C809.23289062 568.71234375 808.34859375 569.3465625 807.4375 570 C806.29087891 570.8353125 806.29087891 570.8353125 805.12109375 571.6875 C803.04313331 572.97330978 801.38902875 573.5666161 799 574 C799 574.66 799 575.32 799 576 C797.38256349 577.19469742 795.70109405 578.30276784 794 579.375 C789.0018815 582.62523846 784.18883219 586.02462635 779.4375 589.625 C772.4644885 594.90616251 765.43937742 600.11107843 758.38256836 605.27978516 C755.22230597 607.59992685 752.10322946 609.91510101 749.07421875 612.40625 C747 614 747 614 745 614 C745 614.66 745 615.32 745 616 C743.48828125 617.33984375 743.48828125 617.33984375 741.3125 618.9375 C737.196959 622.04369154 733.23527346 625.28204122 729.3125 628.625 C728.77858643 629.0799585 728.24467285 629.53491699 727.69458008 630.00366211 C727.17275146 630.44846924 726.65092285 630.89327637 726.11328125 631.3515625 C725.60104004 631.78629883 725.08879883 632.22103516 724.56103516 632.66894531 C723.48219107 633.58884803 722.40929619 634.51575729 721.34130859 635.44824219 C717.21842013 639 717.21842013 639 715 639 C714.7525 639.598125 714.505 640.19625 714.25 640.8125 C712.81927475 643.31626919 711.4308418 644.48072388 709 646 C708.34 646 707.68 646 707 646 C706.34 647.32 705.68 648.64 705 650 C704.34 650 703.68 650 703 650 C702.67 650.99 702.34 651.98 702 653 C700.46875 654.54296875 700.46875 654.54296875 698.5 656.1875 C694.53968292 659.53303861 690.70154669 662.99004337 686.8828125 666.49609375 C685 668 685 668 683 668 C682.7525 668.61875 682.505 669.2375 682.25 669.875 C680.79371361 672.35068687 679.62187494 672.95125002 677 674 C677 674.66 677 675.32 677 676 C676.34 676 675.68 676 675 676 C675 676.66 675 677.32 675 678 C674.34 678 673.68 678 673 678 C673 678.66 673 679.32 673 680 C672.34 680 671.68 680 671 680 C671 680.66 671 681.32 671 682 C669.125 684.125 669.125 684.125 667 686 C666.34 686 665.68 686 665 686 C664.77699219 686.55171875 664.55398438 687.1034375 664.32421875 687.671875 C662.58445903 690.7305676 660.34235518 692.8073812 657.8125 695.25 C653.97050852 699.00788756 650.28983214 702.82936735 646.80078125 706.91796875 C644.62675798 709.43153578 642.37609512 711.86776229 640.125 714.3125 C636.08646293 718.7457813 632.22442587 723.27782234 628.46484375 727.94921875 C626.66334546 730.17896545 624.8454836 732.38596915 623.00390625 734.58203125 C611.09686614 748.86504651 600.89653494 764.27973488 591 780 C590.3709375 780.98226562 589.741875 781.96453125 589.09375 782.9765625 C554.0177271 838.60943488 532.37082188 900.24343676 529 966 C528.96003906 966.73959961 528.92007813 967.47919922 528.87890625 968.24121094 C527.59702232 995.73762115 534.09894044 1023.56448961 541 1050 C541.34629423 1051.40302031 541.68997076 1052.80668889 542.03125 1054.2109375 C542.29023071 1055.27139282 542.29023071 1055.27139282 542.55444336 1056.35327148 C543.02812519 1058.29648232 543.50044409 1060.24002525 543.97265625 1062.18359375 C544.71273494 1064.93285947 545.5118864 1067.54906888 546.44140625 1070.23046875 C548.29542468 1075.6927146 549.59515741 1081.25454309 550.875 1086.875 C551.1318457 1088.00268799 551.38869141 1089.13037598 551.65332031 1090.29223633 C560.65628617 1130.4420227 565.52490143 1171.43412517 556 1212 C555.731875 1213.29164062 555.46375 1214.58328125 555.1875 1215.9140625 C552.65088444 1227.30056025 548.44232114 1238.00850194 544.125 1248.8125 C543.68043961 1249.93005676 543.68043961 1249.93005676 543.22689819 1251.07019043 C539.69239983 1259.9147727 535.876394 1268.51219023 531.53613281 1276.9909668 C529.99273419 1280.01423254 528.55409452 1283.06691923 527.15063477 1286.15649414 C522.02876932 1297.422211 516.01859568 1308.19518775 510 1319 C509.18227471 1320.47655311 508.36456509 1321.9531149 507.546875 1323.4296875 C503.97362425 1329.85446767 500.3038354 1336.20897831 496.5 1342.5 C489.84716459 1353.50999445 483.59686655 1364.6512761 477.94897461 1376.21069336 C475.84551722 1380.46091922 473.53831083 1384.48719281 471 1388.5 C466.43575322 1395.74596375 462.70880674 1403.29372556 459 1411 C458.5786377 1411.86882812 458.15727539 1412.73765625 457.72314453 1413.6328125 C456.37256887 1416.41932531 455.0286728 1419.20895037 453.6875 1422 C453.05642334 1423.30807617 453.05642334 1423.30807617 452.41259766 1424.64257812 C452.01218262 1425.48240234 451.61176758 1426.32222656 451.19921875 1427.1875 C450.84690186 1427.92355469 450.49458496 1428.65960937 450.1315918 1429.41796875 C448.61162376 1432.88618492 447.32958659 1436.45443577 446 1440 C298.82 1440 151.64 1440 0 1440 C0 964.8 0 489.6 0 0 Z " fill="#1A191F" transform="translate(0,0)"/>
<path d="M0 0 C168.96 0 337.92 0 512 0 C509.63701838 2.36298162 507.76714952 3.94230911 505 5.6875 C504.319375 6.12449219 503.63875 6.56148438 502.9375 7.01171875 C501 8 501 8 498 8 C498 8.66 498 9.32 498 10 C494.27034861 12.03435531 492.33094958 13 488 13 C488 13.66 488 14.32 488 15 C485.36 15.66 482.72 16.32 480 17 C480 17.66 480 18.32 480 19 C478.35 19 476.7 19 475 19 C475 19.66 475 20.32 475 21 C473.98421875 21.43570312 472.9684375 21.87140625 471.921875 22.3203125 C464.26074144 25.6284656 456.7375948 29.03379474 449.35546875 32.93359375 C447 34 447 34 444 34 C444 34.66 444 35.32 444 36 C442.948125 36.37125 441.89625 36.7425 440.8125 37.125 C434.7231117 39.40583095 428.88469889 42.24352007 423 45 C411.27059937 50.48054964 399.27766867 55.35041658 387.23828125 60.10546875 C385.70829304 60.71693001 384.1850139 61.34537937 382.66796875 61.98828125 C377.82435878 64.01492904 373.00310344 65.60709508 367.9375 67 C363.04521483 68.346306 358.59101344 69.95592696 354.015625 72.125 C350.76194815 73.53744886 347.45869963 74.21900331 344 75 C339.69378205 76.13749153 335.59058139 77.53111471 331.4375 79.125 C327.46881779 80.60095619 324.28786205 81.46355265 320 81 C320 81.66 320 82.32 320 83 C319.16597656 83.18175781 318.33195312 83.36351563 317.47265625 83.55078125 C316.34730469 83.80214844 315.22195313 84.05351563 314.0625 84.3125 C312.40927734 84.67794922 312.40927734 84.67794922 310.72265625 85.05078125 C307.98057192 85.7499696 305.40955806 86.51895839 302.74609375 87.44140625 C297.57839063 89.20567996 292.321172 90.41936383 287 91.625 C285.12425446 92.05142118 283.24920854 92.48093585 281.375 92.9140625 C280.55773437 93.0992041 279.74046875 93.2843457 278.8984375 93.47509766 C277.00494893 93.83068553 277.00494893 93.83068553 276 95 C274.09253992 95.40080066 272.17322427 95.74587161 270.25 96.0625 C269.20328125 96.23910156 268.1565625 96.41570312 267.078125 96.59765625 C264.33607748 96.95607109 261.75967048 97.07665751 259 97 C259 97.66 259 98.32 259 99 C258.13834229 99.16604736 258.13834229 99.16604736 257.25927734 99.33544922 C254.63036398 99.84449329 252.00269288 100.35969444 249.375 100.875 C248.01955078 101.13603516 248.01955078 101.13603516 246.63671875 101.40234375 C241.94907798 102.32618536 237.52457453 103.44235959 233 105 C231.56959093 105.23556822 230.13117712 105.43074694 228.6875 105.5625 C225.20356334 105.59014592 225.20356334 105.59014592 224 107 C221.9427083 107.31923492 219.88386479 107.51161352 217.8125 107.71875 C215.9832467 107.81998043 215.9832467 107.81998043 215 109 C213.04749137 109.32840359 211.08736367 109.6118124 209.125 109.875 C203.89718411 110.6429599 198.95915277 111.75174242 193.88671875 113.203125 C185.25589362 115.58565318 176.97724797 117.46434041 168 117 C168 117.66 168 118.32 168 119 C165.94921875 119.22786458 163.8984375 119.45572917 161.84765625 119.68359375 C159.98859771 119.81886614 159.98859771 119.81886614 159 121 C157.23581004 121.32947521 155.46288986 121.61249099 153.6875 121.875 C149.49099339 122.54150399 145.41970907 123.35096685 141.3125 124.4375 C136.46329117 125.70361197 131.62585197 126.61841568 126.6875 127.4375 C119.77099629 128.58986262 113.10451704 130.19714321 106.3671875 132.1328125 C102.9230175 133.01982612 99.51735615 133.50002668 96 134 C95.67 134.33 95.34 134.66 95 135 C93.52678249 135.28295618 92.04556398 135.52426728 90.5625 135.75 C85.24020873 136.66715724 80.12277775 138.01795529 74.9375 139.5 C69.33080244 141.10183095 63.7789183 142.55020316 58.0390625 143.60546875 C54.0865063 144.37023537 50.28480366 145.47290106 46.5625 147 C42.41237321 148.61956168 38.08680973 149.57258114 33.73046875 150.46484375 C32.97378906 150.62082031 32.21710937 150.77679688 31.4375 150.9375 C30.75558594 151.07027344 30.07367187 151.20304688 29.37109375 151.33984375 C26.75384838 152.06853315 24.36190545 153.14142816 21.88012695 154.2355957 C18.789292 155.49223825 15.60116946 156.29053254 12.375 157.125 C10.46847656 157.62386719 10.46847656 157.62386719 8.5234375 158.1328125 C5.69919934 158.82791324 2.85203811 159.42959238 0 160 C0 107.2 0 54.4 0 0 Z " fill="#060607" transform="translate(0,0)"/>
<path d="M0 0 C0.66 0.33 1.32 0.66 2 1 C2 17.5 2 34 2 51 C10.69050472 43.99492157 10.69050472 43.99492157 18.5625 36.4375 C20.0042961 34.92188394 21.47381895 33.43060807 23 32 C23.66 32 24.32 32 25 32 C24.67 32.99 24.34 33.98 24 35 C23.34 35 22.68 35 22 35 C21.60470093 35.88534424 21.60470093 35.88534424 21.20141602 36.78857422 C19.95023299 39.09160527 18.65195022 40.56361442 16.77734375 42.3828125 C15.84631836 43.29740234 15.84631836 43.29740234 14.89648438 44.23046875 C14.25001953 44.85566406 13.60355469 45.48085938 12.9375 46.125 C11.6527607 47.37536074 10.37010319 48.62786516 9.08984375 49.8828125 C8.52128662 50.43340332 7.95272949 50.98399414 7.36694336 51.55126953 C5.89270095 52.97414012 5.89270095 52.97414012 5 55 C6.7171521 54.99214478 6.7171521 54.99214478 8.46899414 54.98413086 C12.73868012 54.96595498 17.00836271 54.95452216 21.27807617 54.94506836 C23.12183203 54.94005684 24.96558396 54.93324585 26.80932617 54.92456055 C29.46794612 54.91235516 32.12651327 54.90673975 34.78515625 54.90234375 C35.60210464 54.89718246 36.41905304 54.89202118 37.26075745 54.88670349 C41.9485648 54.88624971 46.37608487 55.21898803 51 56 C48.16536245 57.59059146 46.02306101 58.27060847 42.78222656 58.41064453 C41.96167786 58.45053497 41.14112915 58.49042542 40.29571533 58.53152466 C38.98144562 58.58166214 38.98144562 58.58166214 37.640625 58.6328125 C36.73624695 58.67437469 35.8318689 58.71593689 34.90008545 58.75875854 C32.01702652 58.88930851 29.13360977 59.00731145 26.25 59.125 C24.29293206 59.21141262 22.33590003 59.29864257 20.37890625 59.38671875 C15.58630225 59.60062523 10.79333905 59.80328207 6 60 C6.70346558 60.68775513 6.70346558 60.68775513 7.42114258 61.3894043 C9.55691163 63.48342505 11.68473465 65.58534833 13.8125 67.6875 C14.55048828 68.40873047 15.28847656 69.12996094 16.04882812 69.87304688 C16.76103516 70.57880859 17.47324219 71.28457031 18.20703125 72.01171875 C18.8616333 72.65584717 19.51623535 73.29997559 20.19067383 73.96362305 C22.14444323 76.16256929 23.5632317 78.43948058 25 81 C18.50507517 78.25214719 14.06834727 73.13133448 9.61328125 67.8671875 C8.04233838 65.98629915 8.04233838 65.98629915 6.29296875 64.3828125 C5 63 5 63 5 61 C4.01 61 3.02 61 2 61 C2.00523682 62.26070313 2.01047363 63.52140625 2.01586914 64.8203125 C2.03405064 69.524244 2.04547987 74.22817243 2.05493164 78.93212891 C2.05994189 80.96305871 2.06675191 82.99398494 2.07543945 85.02490234 C2.08765047 87.95411057 2.09326153 90.88327085 2.09765625 93.8125 C2.10281754 94.71178223 2.10797882 95.61106445 2.11329651 96.53759766 C2.11375728 101.78569067 1.76270154 106.80624001 1 112 C-4.16922966 103.00069219 -2.28991545 88.9836028 -2.5625 78.75 C-2.60581949 77.21483525 -2.64943737 75.67967888 -2.69335938 74.14453125 C-2.79900443 70.42977765 -2.90064134 66.7149277 -3 63 C-4.01102783 63.92123657 -4.01102783 63.92123657 -5.04248047 64.86108398 C-5.93338379 65.66876221 -6.82428711 66.47644043 -7.7421875 67.30859375 C-8.62245605 68.10837646 -9.50272461 68.90815918 -10.40966797 69.73217773 C-13.47247014 72.41364516 -16.62720273 74.72702793 -20 77 C-18.4585799 73.43082939 -16.30524541 70.91782231 -13.6875 68.0625 C-12.48867188 66.75345703 -12.48867188 66.75345703 -11.265625 65.41796875 C-8.89367667 62.88652734 -6.49255396 60.41214899 -4 58 C-4.81911865 58.24339111 -4.81911865 58.24339111 -5.65478516 58.49169922 C-8.33900813 59.07347647 -10.77626546 59.12961864 -13.5234375 59.1328125 C-14.61744873 59.13474609 -15.71145996 59.13667969 -16.83862305 59.13867188 C-18.00562744 59.13416016 -19.17263184 59.12964844 -20.375 59.125 C-21.56843018 59.12306641 -22.76186035 59.12113281 -23.99145508 59.11914062 C-35.01249391 59.0664469 -45.99806144 58.62296113 -57 58 C-56.67 57.34 -56.34 56.68 -56 56 C-47.3817844 54.18195202 -38.07020425 54.88195874 -29.3125 54.9375 C-27.91731933 54.94252972 -26.52213689 54.94709 -25.12695312 54.95117188 C-21.75128305 54.96285239 -18.37563559 54.98078386 -15 55 C-15 50.38 -15 45.76 -15 41 C-4.375 40.75 -4.375 40.75 -1 43 C-1.00523682 41.94611084 -1.01047363 40.89222168 -1.01586914 39.80639648 C-1.03405784 35.87216043 -1.04548245 31.93792805 -1.05493164 28.00366211 C-1.05994027 26.30541355 -1.06674906 24.60716926 -1.07543945 22.90893555 C-1.08765773 20.45881085 -1.09326314 18.0087435 -1.09765625 15.55859375 C-1.10281754 14.80726669 -1.10797882 14.05593964 -1.11329651 13.28184509 C-1.11377171 8.75058507 -0.74476436 4.47116319 0 0 Z " fill="#F6F6F8" transform="translate(844,310)"/>
<path d="M0 0 C0.99 0 1.98 0 3 0 C3.33 15.18 3.66 30.36 4 46 C9.58927773 45.60948238 9.58927773 45.60948238 11.609375 43.58984375 C12.17398438 42.77193359 12.17398438 42.77193359 12.75 41.9375 C13.4925 40.968125 14.235 39.99875 15 39 C15.66 39 16.32 39 17 39 C17.268125 38.401875 17.53625 37.80375 17.8125 37.1875 C18.99917406 35.00152146 20.09599113 33.58667406 22 32 C22.66 32 23.32 32 24 32 C22.54682061 35.3907519 20.58699688 37.41300312 18 40 C17.67 40.99 17.34 41.98 17 43 C16.2265625 43.680625 16.2265625 43.680625 15.4375 44.375 C13.74309475 45.96920266 13.74309475 45.96920266 13.75 48.625 C13.74323161 50.95296435 13.74323161 50.95296435 15 52 C23.41436254 53.4378974 32.11005919 53.31444287 40.625 53.5625 C42.02474932 53.60580627 43.42448904 53.64942387 44.82421875 53.69335938 C48.21606451 53.79862355 51.60797354 53.90076009 55 54 C55.33 54.66 55.66 55.32 56 56 C46.20910195 56.77246679 36.44186431 57.25759739 26.625 57.5625 C25.2916586 57.60587258 23.95832519 57.64949141 22.625 57.69335938 C19.41673612 57.79797668 16.20841543 57.90015838 13 58 C11.98197141 61.01000878 11.98197141 61.01000878 13.00390625 63.89453125 C13.51824219 64.52746094 14.03257812 65.16039062 14.5625 65.8125 C15.11292969 66.49957031 15.66335938 67.18664062 16.23046875 67.89453125 C16.81441406 68.58933594 17.39835937 69.28414062 18 70 C18.57363281 70.68449219 19.14726562 71.36898437 19.73828125 72.07421875 C21.1443346 73.72859656 22.57027868 75.36603277 24 77 C23.67 77.66 23.34 78.32 23 79 C20.03776042 76.03776042 17.07552083 73.07552083 14.11328125 70.11328125 C13.32751709 69.33138428 13.32751709 69.33138428 12.52587891 68.53369141 C11.09626698 67.09675986 9.69354383 65.63321685 8.29296875 64.16796875 C6.11597325 61.80422153 6.11597325 61.80422153 3 61 C3.01571045 62.89274658 3.01571045 62.89274658 3.03173828 64.82373047 C3.06786899 69.49394914 3.09087516 74.16415539 3.10986328 78.83447266 C3.11993671 80.85793127 3.13359595 82.88137528 3.15087891 84.90478516 C3.17506847 87.80895589 3.18646949 90.71293461 3.1953125 93.6171875 C3.20563507 94.52556366 3.21595764 95.43393982 3.22659302 96.36984253 C3.22681961 97.63092331 3.22681961 97.63092331 3.22705078 98.91748047 C3.231492 99.65916473 3.23593323 100.400849 3.24050903 101.16500854 C3 103 3 103 1 105 C-0.14756357 102.70487287 -0.19782951 101.21646219 -0.31640625 98.66015625 C-0.35846191 97.77038086 -0.40051758 96.88060547 -0.44384766 95.96386719 C-0.48300293 95.00641602 -0.5221582 94.04896484 -0.5625 93.0625 C-0.6042334 92.08571289 -0.6459668 91.10892578 -0.68896484 90.10253906 C-0.95104912 83.48517856 -1.10373896 76.8724903 -1.125 70.25 C-1.12959229 69.44699463 -1.13418457 68.64398926 -1.13891602 67.81665039 C-1.12373119 62.24746237 -1.12373119 62.24746237 0 60 C-7.12331475 65.63207877 -13.71563137 71.43632609 -20 78 C-20 73.06349214 -16.32693536 70.4052871 -13 67 C-10.06043996 64.26044168 -7.05755103 61.60689158 -4 59 C-5.62607636 57.37392364 -7.45683065 57.83409069 -9.70336914 57.79467773 C-11.20481224 57.7647599 -11.20481224 57.7647599 -12.73658752 57.73423767 C-14.36937904 57.70916893 -14.36937904 57.70916893 -16.03515625 57.68359375 C-17.14354355 57.66281265 -18.25193085 57.64203156 -19.39390564 57.62062073 C-22.95003808 57.55500377 -26.50624703 57.49618404 -30.0625 57.4375 C-32.46680493 57.39432632 -34.87110199 57.35071242 -37.27539062 57.30664062 C-43.18351185 57.19931008 -49.09170991 57.09756669 -55 57 C-54.67 56.01 -54.34 55.02 -54 54 C-37.66590773 52.84797334 -21.36409773 52.89410987 -5 53 C-6.89376076 49.76716967 -8.66738308 47.09735198 -11.375 44.5 C-11.98472656 43.90832031 -12.59445312 43.31664062 -13.22265625 42.70703125 C-13.80917969 42.14371094 -14.39570313 41.58039062 -15 41 C-17.33333333 38.66666667 -19.66666667 36.33333333 -22 34 C-21.67 33.01 -21.34 32.02 -21 31 C-20.4652002 31.54003662 -19.93040039 32.08007324 -19.37939453 32.63647461 C-16.96386294 35.07274376 -14.54448883 37.50516107 -12.125 39.9375 C-10.86236328 41.21270508 -10.86236328 41.21270508 -9.57421875 42.51367188 C-8.76855469 43.32255859 -7.96289062 44.13144531 -7.1328125 44.96484375 C-6.01737061 46.08814087 -6.01737061 46.08814087 -4.87939453 47.23413086 C-3.1128324 49.06297703 -3.1128324 49.06297703 -1 50 C-1.00523682 49.23147705 -1.01047363 48.4629541 -1.01586914 47.67114258 C-1.10963056 31.74238308 -0.9732566 15.9023176 0 0 Z " fill="#F0F0F1" transform="translate(279,673)"/>
<path d="M0 0 C0.66 0 1.32 0 2 0 C2 13.53 2 27.06 2 41 C6.26560083 38.4406395 8.22895515 36.88035262 11.3125 33.25 C15.24445146 28.75068642 19.39020009 24.79335034 24 21 C24.66 21.33 25.32 21.66 26 22 C25.28714844 22.70125 24.57429688 23.4025 23.83984375 24.125 C18.81363062 29.09673319 13.91475349 34.05442697 9.4375 39.5390625 C8 41 8 41 5 42 C5 42.66 5 43.32 5 44 C5.7528125 43.99476318 6.505625 43.98952637 7.28125 43.98413086 C24.21964758 43.88263409 41.08106594 44.10890612 58 45 C58 45.66 58 46.32 58 47 C41.17 47.66 24.34 48.32 7 49 C7 49.66 7 50.32 7 51 C7.99 51.33 8.98 51.66 10 52 C11.82421875 53.77734375 11.82421875 53.77734375 13.6875 55.9375 C14.62142578 57.00291016 14.62142578 57.00291016 15.57421875 58.08984375 C17 60 17 60 17 62 C17.66 62 18.32 62 19 62 C20.38232443 63.62626404 21.71937515 65.2925002 23 67 C22.67 67.66 22.34 68.32 22 69 C12 59 12 59 9.48046875 56.35546875 C7.10458495 54.09931452 4.82233171 52.62816658 2 51 C2.01571045 52.78615723 2.01571045 52.78615723 2.03173828 54.60839844 C2.06795556 59.02894074 2.09090682 63.44946993 2.10986328 67.87011719 C2.1199169 69.78290004 2.13356173 71.69566755 2.15087891 73.60839844 C2.17515522 76.35876252 2.1864895 79.10892328 2.1953125 81.859375 C2.20563507 82.71368103 2.21595764 83.56798706 2.22659302 84.44818115 C2.22681961 85.64897308 2.22681961 85.64897308 2.22705078 86.87402344 C2.231492 87.57573669 2.23593323 88.27744995 2.24050903 89.00042725 C1.95925791 91.33872645 1.15285101 92.96267675 0 95 C-0.87266212 89.76100772 -1.13410177 84.74677147 -1.09765625 79.44140625 C-1.0962413 78.65225327 -1.09482635 77.86310028 -1.09336853 77.05003357 C-1.08781555 74.55414885 -1.07527208 72.05835715 -1.0625 69.5625 C-1.05747891 67.86002735 -1.05291707 66.15755327 -1.04882812 64.45507812 C-1.03786158 60.30335012 -1.02062991 56.15169078 -1 52 C-4.36801163 53.91033006 -7.18467948 55.90737804 -9.98828125 58.57421875 C-10.69404297 59.24130859 -11.39980469 59.90839844 -12.12695312 60.59570312 C-12.84818359 61.28599609 -13.56941406 61.97628906 -14.3125 62.6875 C-15.05306641 63.38939453 -15.79363281 64.09128906 -16.55664062 64.81445312 C-18.37498787 66.53895019 -20.18925573 68.26752723 -22 70 C-22.99 69.505 -22.99 69.505 -24 69 C-23.16855469 68.14277344 -22.33710937 67.28554688 -21.48046875 66.40234375 C-20.38231222 65.2478715 -19.2846839 64.09289665 -18.1875 62.9375 C-17.64029297 62.37611328 -17.09308594 61.81472656 -16.52929688 61.23632812 C-12.90034565 57.38744047 -10.8072941 53.97798551 -9 49 C-11.8543996 48.19383235 -14.43906054 47.8556664 -17.40136719 47.79467773 C-18.2619574 47.77473251 -19.12254761 47.75478729 -20.00921631 47.73423767 C-21.38910736 47.70916893 -21.38910736 47.70916893 -22.796875 47.68359375 C-24.22003021 47.6524221 -24.22003021 47.6524221 -25.67193604 47.62062073 C-28.69788482 47.55532066 -31.7239192 47.49633112 -34.75 47.4375 C-36.80339421 47.3942962 -38.85677982 47.35068131 -40.91015625 47.30664062 C-45.9400168 47.19965927 -50.96996332 47.09833677 -56 47 C-56 46.34 -56 45.68 -56 45 C-54.70787598 44.95512451 -53.41575195 44.91024902 -52.08447266 44.86401367 C-47.30178711 44.69408326 -42.52001278 44.50511121 -37.73828125 44.31030273 C-35.66654054 44.22858335 -33.59458792 44.15206641 -31.52246094 44.08081055 C-28.54812 43.97763365 -25.57503682 43.85591726 -22.6015625 43.73046875 C-21.20618759 43.6880732 -21.20618759 43.6880732 -19.78262329 43.64482117 C-18.92188202 43.60500626 -18.06114075 43.56519135 -17.17431641 43.52416992 C-16.41486725 43.49530197 -15.65541809 43.46643402 -14.87295532 43.43669128 C-12.59257035 43.13024878 -12.59257035 43.13024878 -11 40 C-11.21779936 35.9874657 -13.73615539 33.76849349 -16.375 30.9375 C-17.16648437 30.08027344 -17.95796875 29.22304688 -18.7734375 28.33984375 C-20.07964179 26.96718345 -21.4091617 25.61495919 -22.7890625 24.31640625 C-24 23 -24 23 -24 21 C-19.16961899 22.8445369 -16.07312675 26.92066127 -12.68554688 30.65625 C-9.01211616 34.51406141 -6.23554387 35.94894979 -1 37 C-1.00523682 36.26998779 -1.01047363 35.53997559 -1.01586914 34.7878418 C-1.03689317 31.42107026 -1.04974002 28.05431261 -1.0625 24.6875 C-1.07087891 23.53958984 -1.07925781 22.39167969 -1.08789062 21.20898438 C-1.10808977 14.07868651 -0.79718119 7.08655428 0 0 Z " fill="#F6F7F8" transform="translate(1103,575)"/>
<path d="M0 0 C4.99703211 2.57316416 8.19899014 6.70291217 10 12 C10.94683417 18.41743158 9.53953631 21.88608728 5.69921875 27.078125 C2.78209662 30.37749072 0.17414438 31.69444457 -4.16796875 32.3046875 C-9.61459759 32.61488077 -12.76123879 31.64730616 -17 28 C-21.4282118 22.9733812 -22.3111862 20.11585531 -22.20703125 13.53515625 C-21.79869279 8.53493626 -19.75600942 5.35907288 -16.0625 2.125 C-11.11850347 -1.09752003 -5.6632104 -1.08346359 0 0 Z " fill="#F7F7F8" transform="translate(1928,848)"/>
<path d="M0 0 C3.18768616 1.72666334 4.97550072 3.16637609 7 6.203125 C7.75382467 10.80496167 7.39969844 14.3729821 5.375 18.578125 C2.00276204 22.30533537 -1.00104371 23.76856928 -5.875 24.828125 C-10.69750363 23.86362427 -13.67549868 20.71011684 -17 17.203125 C-18.59799033 14.00714435 -18.36773555 10.67989744 -18 7.203125 C-14.81671067 -0.33624446 -7.56896002 -3.01575751 0 0 Z " fill="#F6F5F6" transform="translate(1869,1253.796875)"/>
<path d="M0 0 C3.0220794 1.74450506 5.41651082 3.83302164 7 7 C7.40710593 11.23390162 7.25575965 13.51588352 5.25 17.3125 C2.09293527 21.08343843 0.4861093 21.74764182 -4.3125 22.5625 C-8.85803756 21.86911292 -10.65036121 20.43208686 -13.671875 17.0703125 C-16.00738599 13.42966302 -15.75356007 11.24733855 -15 7 C-11.28978721 1.11483489 -6.96793069 -1.32785094 0 0 Z " fill="#F4F3F4" transform="translate(1778,1072)"/>
<path d="M0 0 C3.27981751 2.06771104 4.84746007 3.77119011 7 7 C7.43660384 10.30571478 7.71042728 12.81419387 5.94921875 15.75390625 C4.16506981 17.93804138 2.54181233 19.72909383 0 21 C-7.07953977 21.58029015 -7.07953977 21.58029015 -10.875 19.1875 C-13.4169336 16.57080364 -14.8864233 14.85182526 -15.375 11.1875 C-14.90316168 7.1768743 -13.49439589 5.13581198 -11 2 C-7.31185227 -0.45876515 -4.283157 -0.6943399 0 0 Z " fill="#F9F9FA" transform="translate(754,973)"/>
<path d="M0 0 C6.78471289 5.55112873 12.85114918 11.76717397 19 18 C19.66 18.66 20.32 19.32 21 20 C20.835 20.78375 20.67 21.5675 20.5 22.375 C19.91101143 25.46718999 20.50482118 26.33812861 22 29 C21.31035156 29.54527344 20.62070312 30.09054687 19.91015625 30.65234375 C13.53319906 35.76965507 7.65939736 41.08907387 2 47 C2 42.06349214 5.67306464 39.4052871 9 36 C11.93956004 33.26044168 14.94244897 30.60689158 18 28 C16.37392364 26.37392364 14.54316935 26.83409069 12.29663086 26.79467773 C10.79518776 26.7647599 10.79518776 26.7647599 9.26341248 26.73423767 C7.63062096 26.70916893 7.63062096 26.70916893 5.96484375 26.68359375 C4.85645645 26.66281265 3.74806915 26.64203156 2.60609436 26.62062073 C-0.95003808 26.55500377 -4.50624703 26.49618404 -8.0625 26.4375 C-10.46680493 26.39432632 -12.87110199 26.35071242 -15.27539062 26.30664062 C-21.18351185 26.19931008 -27.09170991 26.09756669 -33 26 C-32.505 24.515 -32.505 24.515 -32 23 C-15.66590773 21.84797334 0.63590227 21.89410987 17 22 C15.10623924 18.76716967 13.33261692 16.09735198 10.625 13.5 C10.01527344 12.90832031 9.40554688 12.31664062 8.77734375 11.70703125 C7.89755859 10.86205078 7.89755859 10.86205078 7 10 C4.66666667 7.66666667 2.33333333 5.33333333 0 3 C0 2.01 0 1.02 0 0 Z " fill="#DADADF" transform="translate(257,704)"/>
<path d="M0 0 C0.66 0.33 1.32 0.66 2 1 C1.28714844 1.70125 0.57429688 2.4025 -0.16015625 3.125 C-5.18636938 8.09673319 -10.08524651 13.05442697 -14.5625 18.5390625 C-16 20 -16 20 -19 21 C-19 21.66 -19 22.32 -19 23 C-17.87078125 22.99214478 -17.87078125 22.99214478 -16.71875 22.98413086 C0.21964758 22.88263409 17.08106594 23.10890612 34 24 C34 24.66 34 25.32 34 26 C17.17 26.66 0.34 27.32 -17 28 C-17 28.66 -17 29.32 -17 30 C-16.01 30.33 -15.02 30.66 -14 31 C-12.17578125 32.77734375 -12.17578125 32.77734375 -10.3125 34.9375 C-9.37857422 36.00291016 -9.37857422 36.00291016 -8.42578125 37.08984375 C-7 39 -7 39 -7 41 C-6.34 41 -5.68 41 -5 41 C-3.61767557 42.62626404 -2.28062485 44.2925002 -1 46 C-1.33 46.66 -1.66 47.32 -2 48 C-8.33333333 41.66666667 -14.66666667 35.33333333 -21 29 C-19 26 -19 26 -16 25 C-17.32 24.67 -18.64 24.34 -20 24 C-20.33 22.68 -20.66 21.36 -21 20 C-20.319375 19.505 -19.63875 19.01 -18.9375 18.5 C-16.56350915 16.47958225 -14.74181882 14.60861064 -12.75 12.25 C-8.88628659 7.71248226 -4.52781743 3.86045205 0 0 Z " fill="#D8D8D8" transform="translate(1127,596)"/>
<path d="M0 0 C3.14712898 0.27418169 4.217958 0.82826454 7 2.625 C9.34090814 6.20951559 9.73662236 8.3865268 9.484375 12.59765625 C9 14.6875 9 14.6875 6.875 17.1875 C3.71302326 18.83722699 1.57164218 19.61309079 -2 19.6875 C-5.52906067 18.08338152 -6.82772908 16.94590638 -9 13.6875 C-9.58971053 9.22254887 -9.28380937 7.17529735 -7 3.25 C-3.47228916 0.23674699 -3.47228916 0.23674699 0 0 Z " fill="#F2F1F3" transform="translate(1998,394.3125)"/>
<path d="M0 0 C2.5 1.5 2.5 1.5 4 4 C4.58460443 7.65752516 4.38571469 10.8725263 3.1875 14.375 C1.0790755 17.26021247 -0.85905266 17.97606555 -4.3125 18.5625 C-8.85357577 17.86979353 -10.26152191 16.52187704 -12.95703125 12.9375 C-14 11 -14 11 -14.1875 7.875 C-11.19679699 0.63435061 -7.36463021 -1.05209003 0 0 Z " fill="#F0EFF2" transform="translate(1578,848)"/>
<path d="M0 0 C3.62486836 3.23086093 4.78571531 4.77857725 5.625 9.5625 C4.82760832 13.94815425 3.60142761 15.41636715 0 18 C-4.22122772 18.89813356 -5.66321982 18.21604766 -9.3125 15.875 C-12 13 -12 13 -13.1875 10.0625 C-12.91383063 5.59256689 -11.13931157 4.13931157 -8 1 C-5.074084 -0.462958 -3.24382653 -0.44523109 0 0 Z " fill="#F6F5F6" transform="translate(1258,474)"/>
<path d="M0 0 C2.86314748 1.99175477 4.5961805 3.49402654 5.51953125 6.9375 C5.76880007 9.99828927 5.6556516 12.09685078 3.8203125 14.625 C1.55063058 16.69476175 -0.58578389 17.89897168 -3.5625 18.625 C-7.0661098 17.72663851 -8.65574658 15.66984417 -11 13 C-11.33 12.67 -11.66 12.34 -12 12 C-12.4375 8.75 -12.4375 8.75 -12 5 C-8.35740398 0.92376159 -5.51295534 -1.17296922 0 0 Z " fill="#EDEBEE" transform="translate(2048,273)"/>
<path d="M0 0 C4.63235294 2.26470588 4.63235294 2.26470588 6 5 C6.58257477 10.15994798 6.58257477 10.15994798 6 13 C2.76137065 16.23862935 0.95224891 16.98358192 -3.625 17.0625 C-7.71108416 15.77614017 -9.02126538 14.79257469 -11 11 C-11 7.04475779 -10.56831266 4.82089606 -8.3125 1.5625 C-5.26431463 -0.49708471 -3.61958997 -0.51708428 0 0 Z " fill="#F3F1F3" transform="translate(1774,296)"/>
<path d="M0 0 C0.33 0.66 0.66 1.32 1 2 C1.99 2 2.98 2 4 2 C4.33 4.64 4.66 7.28 5 10 C5.33 10 5.66 10 6 10 C6.02487921 14.83804966 6.04294428 19.67606135 6.05493164 24.51416016 C6.05993363 26.15707041 6.06673733 27.79997627 6.07543945 29.44287109 C6.0876874 31.81609181 6.09326979 34.18925323 6.09765625 36.5625 C6.10281754 37.28679199 6.10797882 38.01108398 6.11329651 38.75732422 C6.11381759 43.5874339 5.68027235 48.21690863 5 53 C-0.16922966 44.00069219 1.71008455 29.9836028 1.4375 19.75 C1.39418051 18.21483525 1.35056263 16.67967888 1.30664062 15.14453125 C1.20099557 11.42977765 1.09935866 7.7149277 1 4 C0.32598145 4.61415771 -0.34803711 5.22831543 -1.04248047 5.86108398 C-1.93338379 6.66876221 -2.82428711 7.47644043 -3.7421875 8.30859375 C-4.62245605 9.10837646 -5.50272461 9.90815918 -6.40966797 10.73217773 C-9.47247014 13.41364516 -12.62720273 15.72702793 -16 18 C-14.45311471 14.42644681 -12.29462895 11.87441444 -9.6875 9 C-8.92824219 8.154375 -8.16898438 7.30875 -7.38671875 6.4375 C-5.05942071 4.06068498 -2.64007334 2.01860475 0 0 Z " fill="#E3E3EB" transform="translate(840,369)"/>
<path d="M0 0 C2.4375 1.5625 2.4375 1.5625 4 4 C4.72468526 8.42863214 4.49454049 10.28066838 1.9375 14 C-1 16 -1 16 -4.5625 16.125 C-8.66488116 14.78240253 -10.00630003 13.82125828 -12 10 C-12 6.22089384 -11.83289714 3.99306967 -9.375 1.0625 C-6.02317947 -0.43699866 -3.63019782 -0.45377473 0 0 Z " fill="#F3F3F4" transform="translate(2115,665)"/>
<path d="M0 0 C4.0743356 0.84881992 5.54405875 2.30225596 8 5.625 C8.55153827 9.00317188 8.3613395 10.8385552 6.9375 13.9375 C4.08600024 16.42106431 1.7180202 16.49454315 -2 16.625 C-4.71833146 15.8168474 -5.64760147 15.13597787 -7.25 12.8125 C-8.18066987 10.09804621 -8.48683722 8.47647512 -8 5.625 C-5.53235541 2.35899981 -4.04381805 0.84246209 0 0 Z " fill="#F5F4F5" transform="translate(1068,1407.375)"/>
<path d="M0 0 C3.55312409 0.58010189 5.42127399 1.01414023 8.0625 3.5 C8.70346972 7.98678806 8.85269411 10.20408166 6.5 14.0625 C4.0625 15.5 4.0625 15.5 0.5 15.4375 C-4.30731132 14.12641509 -4.30731132 14.12641509 -5.9375 11.5 C-6.875 8.625 -6.875 8.625 -6.9375 5.5 C-5.01378263 1.96036004 -4.01974232 0.68421146 0 0 Z " fill="#F3F1F3" transform="translate(268.9375,140.5)"/>
<path d="M0 0 C2.83319507 2.60347655 3.8781624 4.25374468 4.5 8.0625 C4 11 4 11 2.375 13.375 C0 15 0 15 -2.9375 15.625 C-6 15 -6 15 -8.9375 12.3125 C-11 9 -11 9 -10.9375 6.3125 C-10 4 -10 4 -8 1 C-4.93309225 -0.02230258 -3.18373032 -0.46591175 0 0 Z " fill="#EEEBEE" transform="translate(804,126)"/>
<path d="M0 0 C3.02089478 -0.02716089 6.04154129 -0.04691657 9.0625 -0.0625 C9.91005859 -0.07087891 10.75761719 -0.07925781 11.63085938 -0.08789062 C16.5361722 -0.10683006 21.16444755 0.16673655 26 1 C23.16536245 2.59059146 21.02306101 3.27060847 17.78222656 3.41064453 C16.96167786 3.45053497 16.14112915 3.49042542 15.29571533 3.53152466 C13.98144562 3.58166214 13.98144562 3.58166214 12.640625 3.6328125 C11.73624695 3.67437469 10.8318689 3.71593689 9.90008545 3.75875854 C7.01702652 3.88930851 4.13360977 4.00731145 1.25 4.125 C-0.70706794 4.21141262 -2.66409997 4.29864257 -4.62109375 4.38671875 C-9.41369775 4.60062523 -14.20666095 4.80328207 -19 5 C-18.53102295 5.45850342 -18.0620459 5.91700684 -17.57885742 6.3894043 C-15.44308837 8.48342505 -13.31526535 10.58534833 -11.1875 12.6875 C-10.08051758 13.7693457 -10.08051758 13.7693457 -8.95117188 14.87304688 C-8.23896484 15.57880859 -7.52675781 16.28457031 -6.79296875 17.01171875 C-6.1383667 17.65584717 -5.48376465 18.29997559 -4.80932617 18.96362305 C-2.85555677 21.16256929 -1.4367683 23.43948058 0 26 C-6.49492483 23.25214719 -10.93165273 18.13133448 -15.38671875 12.8671875 C-16.95766162 10.98629915 -16.95766162 10.98629915 -18.70703125 9.3828125 C-20 8 -20 8 -20 6 C-20.99 5.67 -21.98 5.34 -23 5 C-22.34 5 -21.68 5 -21 5 C-21 4.34 -21 3.68 -21 3 C-10.605 2.505 -10.605 2.505 0 2 C0 1.34 0 0.68 0 0 Z " fill="#B5B4B8" transform="translate(869,365)"/>
<path d="M0 0 C2 1.0625 2 1.0625 3 3 C3.50030235 6.93094707 3.5996142 9.1005787 1.375 12.4375 C-1.71685231 14.47161336 -3.36367425 14.60605429 -7 14 C-9.375 12.4375 -9.375 12.4375 -11 10 C-11.42213381 6.56262469 -11.60856522 4.17909511 -10 1.0625 C-6.75978228 -0.65886567 -3.58042244 -0.52960415 0 0 Z " fill="#F1EFEF" transform="translate(1248,890)"/>
<path d="M0 0 C3 0.5625 3 0.5625 5.375 2.1875 C7.45406883 5.22613906 7.46155369 6.94699608 7 10.5625 C5 13.5625 5 13.5625 3.16015625 14.1796875 C-2.44241611 14.86827181 -2.44241611 14.86827181 -4.9375 13.5 C-6.45711644 10.72893473 -6.93653504 8.7357481 -7 5.5625 C-5.05716059 1.98767549 -4.03959602 0.75742425 0 0 Z " fill="#F0EEEF" transform="translate(284,42.4375)"/>
<path d="M0 0 C2.375 1.625 2.375 1.625 4 4 C4.5625 7 4.5625 7 4 10 C1.5855817 12.62136844 -0.07761597 13.79752546 -3.5625 14.5625 C-6 14 -6 14 -8.3125 11.8125 C-10.14956543 8.75072428 -10.713937 7.4804429 -10 4 C-7.16979976 -0.02759265 -4.82432618 -0.80405436 0 0 Z " fill="#F1EEF1" transform="translate(1012,76)"/>
<path d="M0 0 C4.30169173 1.40272556 4.30169173 1.40272556 5.875 3.9375 C6.41352618 7.55331862 6.29736225 9.27861489 4.3125 12.375 C1.875 13.9375 1.875 13.9375 -1.6875 13.9375 C-5.125 12.9375 -5.125 12.9375 -7.0625 11.1875 C-8.37193207 8.41458502 -8.72996057 6.96230283 -8.125 3.9375 C-5.41940372 0.91359827 -4.10202376 -0.08204048 0 0 Z " fill="#F1F0F3" transform="translate(559.125,1368.0625)"/>
<path d="M0 0 C3.0625 0.3125 3.0625 0.3125 4.9375 1.375 C6.68223477 4.37982099 6.37085443 6.92060131 6.0625 10.3125 C4.0625 12.3125 4.0625 12.3125 0.625 12.6875 C-2.9375 12.3125 -2.9375 12.3125 -4.9375 10.6875 C-6.27930884 7.50070399 -5.86697204 5.60140107 -4.9375 2.3125 C-2.9375 0.3125 -2.9375 0.3125 0 0 Z " fill="#E9E6E9" transform="translate(675.9375,417.6875)"/>
<path d="M0 0 C2.3125 1.125 2.3125 1.125 4 3 C4.5 6 4.5 6 4 9 C1.88310295 11.35210784 0.55958485 11.91810953 -2.5625 12.375 C-5 12 -5 12 -6.8125 10.875 C-8.55198782 8.12844028 -8.39769128 6.18153026 -8 3 C-5.89743606 -0.3198378 -3.76818826 -0.55144218 0 0 Z " fill="#EBE9ED" transform="translate(1893,171)"/>
<path d="M0 0 C0.99 0 1.98 0 3 0 C3 13.53 3 27.06 3 41 C2.67 41 2.34 41 2 41 C1.67 35.72 1.34 30.44 1 25 C0.67 33.25 0.34 41.5 0 50 C-0.33 50 -0.66 50 -1 50 C-1.11382833 33.29525448 -1.02069948 16.67750035 0 0 Z " fill="#A19EA2" transform="translate(279,673)"/>
<path d="M0 0 C2.375 0.8125 2.375 0.8125 4.375 2.8125 C4.708728 5.94954316 4.90349028 7.97804166 3.1875 10.6875 C0.67701593 12.24573149 -0.71802053 12.30881357 -3.625 11.8125 C-6 10.125 -6 10.125 -7.625 7.8125 C-7.625 4.58560955 -7.07405935 3.29363502 -4.875 0.9375 C-2.625 -0.1875 -2.625 -0.1875 0 0 Z " fill="#F2F1F3" transform="translate(862.625,900.1875)"/>
<path d="M0 0 C0 0.33 0 0.66 0 1 C10.395 1.99 10.395 1.99 21 3 C21 3.33 21 3.66 21 4 C4.63139008 4.12198574 -11.65572484 3.92545946 -28 3 C-27.67 2.34 -27.34 1.68 -27 1 C-18.32383178 -0.85045036 -8.83586903 -0.09977769 0 0 Z " fill="#94949B" transform="translate(815,365)"/>
<path d="M0 0 C2 2 2 2 2.3125 4.4375 C2 7 2 7 0.8125 8.8125 C-1.64907776 10.42525784 -3.11065736 10.4334014 -6 10 C-7.875 8.9375 -7.875 8.9375 -9 7 C-8.8125 3.375 -8.8125 3.375 -8 0 C-5.09288879 -1.4535556 -3.10402897 -0.71133997 0 0 Z " fill="#EDEAEC" transform="translate(498,457)"/>
<path d="M0 0 C0 0.33 0 0.66 0 1 C-4.455 1.495 -4.455 1.495 -9 2 C-6.36 2.33 -3.72 2.66 -1 3 C-1 3.33 -1 3.66 -1 4 C-12.55 4 -24.1 4 -36 4 C-35.67 3.01 -35.34 2.02 -35 1 C-23.31514456 0.28874793 -11.70795574 -0.14534014 0 0 Z " fill="#ADACB4" transform="translate(260,726)"/>
<path d="M0 0 C3.625 0.375 3.625 0.375 7 1 C7.625 4.375 7.625 4.375 8 8 C6 10 6 10 3 10.25 C0 10 0 10 -2 8 C-2.25 5 -2.25 5 -2 2 C-1.34 1.34 -0.68 0.68 0 0 Z " fill="#E4E2E5" transform="translate(1567,736)"/>
<path d="M0 0 C0.33 0 0.66 0 1 0 C1.33 9.24 1.66 18.48 2 28 C2.33 28 2.66 28 3 28 C3.05383848 30.45862401 3.09359038 32.9160755 3.125 35.375 C3.15013672 36.42300781 3.15013672 36.42300781 3.17578125 37.4921875 C3.19344267 39.32897486 3.10303261 41.16601963 3 43 C2.34 43.66 1.68 44.32 1 45 C-0.14756357 42.70487287 -0.19782951 41.21646219 -0.31640625 38.66015625 C-0.35846191 37.77038086 -0.40051758 36.88060547 -0.44384766 35.96386719 C-0.48300293 35.00641602 -0.5221582 34.04896484 -0.5625 33.0625 C-0.6042334 32.08571289 -0.6459668 31.10892578 -0.68896484 30.10253906 C-0.95104912 23.48517856 -1.10373896 16.8724903 -1.125 10.25 C-1.12959229 9.44699463 -1.13418457 8.64398926 -1.13891602 7.81665039 C-1.12373119 2.24746237 -1.12373119 2.24746237 0 0 Z " fill="#C1C1C6" transform="translate(279,733)"/>
<path d="M0 0 C0.33 0 0.66 0 1 0 C1.33 5.28 1.66 10.56 2 16 C2.33 13.03 2.66 10.06 3 7 C3.33 7 3.66 7 4 7 C4.02929981 10.83331699 4.04689897 14.66660471 4.0625 18.5 C4.07087891 19.57765625 4.07925781 20.6553125 4.08789062 21.765625 C4.10571885 27.61328382 3.89105963 33.21863671 3 39 C-2.94949598 28.47954979 -0.09640212 11.66910549 0 0 Z " fill="#9694A3" transform="translate(842,383)"/>
<path d="M0 0 C3.46679688 0.04882812 3.46679688 0.04882812 6.93359375 0.09765625 C6.93359375 3.06765625 6.93359375 6.03765625 6.93359375 9.09765625 C0.52541193 9.46038352 0.52541193 9.46038352 -2.00390625 7.91015625 C-3.41083993 5.51009291 -3.35433384 3.83296834 -3.06640625 1.09765625 C-2.06640625 0.09765625 -2.06640625 0.09765625 0 0 Z " fill="#C6BDC3" transform="translate(690.06640625,191.90234375)"/>
<path d="M0 0 C2.24658203 -0.34057617 2.24658203 -0.34057617 5.0078125 -0.29296875 C5.99394531 -0.28330078 6.98007813 -0.27363281 7.99609375 -0.26367188 C9.02863281 -0.23853516 10.06117187 -0.21339844 11.125 -0.1875 C12.68541016 -0.16719727 12.68541016 -0.16719727 14.27734375 -0.14648438 C16.85207627 -0.11105228 19.4257833 -0.06165221 22 0 C22 0.33 22 0.66 22 1 C15.4 1.33 8.8 1.66 2 2 C2 2.66 2 3.32 2 4 C2.99 4.33 3.98 4.66 5 5 C6.82421875 6.77734375 6.82421875 6.77734375 8.6875 8.9375 C9.62142578 10.00291016 9.62142578 10.00291016 10.57421875 11.08984375 C12 13 12 13 12 15 C12.66 15 13.32 15 14 15 C15.38232443 16.62626404 16.71937515 18.2925002 18 20 C17.67 20.66 17.34 21.32 17 22 C10.66666667 15.66666667 4.33333333 9.33333333 -2 3 C-1.34 2.01 -0.68 1.02 0 0 Z " fill="#C1C1C2" transform="translate(1108,622)"/>
<path d="M0 0 C3.02089478 -0.02716089 6.04154129 -0.04691657 9.0625 -0.0625 C9.91005859 -0.07087891 10.75761719 -0.07925781 11.63085938 -0.08789062 C16.5361722 -0.10683006 21.16444755 0.16673655 26 1 C22.30995799 3.34894745 19.1328897 3.23059746 14.828125 3.1953125 C14.1457074 3.1924826 13.46328979 3.18965271 12.76019287 3.18673706 C10.58994693 3.17558098 8.42012029 3.15048557 6.25 3.125 C4.77474556 3.11496426 3.29948463 3.10583944 1.82421875 3.09765625 C-1.78398942 3.07565687 -5.39195375 3.04115883 -9 3 C-9 2.67 -9 2.34 -9 2 C-6.03 2 -3.06 2 0 2 C0 1.34 0 0.68 0 0 Z " fill="#C0C0C3" transform="translate(869,365)"/>
<path d="M0 0 C-0.33 0.99 -0.66 1.98 -1 3 C-1.66 3 -2.32 3 -3 3 C-3.26425781 3.59095459 -3.52851562 4.18190918 -3.80078125 4.79077148 C-5.04346276 7.08006809 -6.32451943 8.5403626 -8.1875 10.34765625 C-8.80367187 10.95287109 -9.41984375 11.55808594 -10.0546875 12.18164062 C-10.69664062 12.80232422 -11.33859375 13.42300781 -12 14.0625 C-13.27308578 15.30107442 -14.54400932 16.54187616 -15.8125 17.78515625 C-16.37582031 18.33051025 -16.93914063 18.87586426 -17.51953125 19.43774414 C-19.2143664 21.1377109 -19.2143664 21.1377109 -21 24 C-21 23.01 -21 22.02 -21 21 C-21.66 21 -22.32 21 -23 21 C-23 20.34 -23 19.68 -23 19 C-21.42366615 17.60946976 -19.78595085 16.28827212 -18.125 15 C-13.00749604 10.9285059 -8.50859304 6.614633 -3.99609375 1.87109375 C-2 0 -2 0 0 0 Z " fill="#99999E" transform="translate(869,342)"/>
<path d="M0 0 C0.94875 0.04125 1.8975 0.0825 2.875 0.125 C4.30444945 2.47938733 4.96161261 3.60532433 4.5 6.375 C4.29375 6.9525 4.0875 7.53 3.875 8.125 C-1.75 9.25 -1.75 9.25 -5.125 8.125 C-5.25 5.25 -5.25 5.25 -5.125 2.125 C-3.125 0.125 -3.125 0.125 0 0 Z " fill="#E0DDE0" transform="translate(234.125,252.875)"/>
<path d="M0 0 C3.5 0.125 3.5 0.125 4.5 1.125 C4.6875 4.0625 4.6875 4.0625 4.5 7.125 C2.5 9.125 2.5 9.125 -0.625 9.25 C-2.048125 9.188125 -2.048125 9.188125 -3.5 9.125 C-4.37890625 2.97265625 -4.37890625 2.97265625 -4.5 1.125 C-3.5 0.125 -3.5 0.125 0 0 Z " fill="#D6D2D3" transform="translate(455.5,1247.875)"/>
<path d="M0 0 C5.09032841 -0.02468084 10.18062215 -0.04285082 15.27099609 -0.05493164 C17.00342414 -0.05996682 18.73584792 -0.06679532 20.46826172 -0.07543945 C22.95541433 -0.08754065 25.44251087 -0.09323638 27.9296875 -0.09765625 C28.70682098 -0.10281754 29.48395447 -0.10797882 30.28463745 -0.11329651 C35.77225659 -0.11387171 35.77225659 -0.11387171 38 1 C38 1.66 38 2.32 38 3 C35.22276075 3.78688445 32.77389923 4.11949924 29.890625 4.09765625 C29.13652344 4.09443359 28.38242187 4.09121094 27.60546875 4.08789062 C26.82816406 4.07951172 26.05085938 4.07113281 25.25 4.0625 C24.45722656 4.05798828 23.66445313 4.05347656 22.84765625 4.04882812 C20.89840492 4.03708565 18.94919262 4.01915146 17 4 C17 3.67 17 3.34 17 3 C23.435 2.505 23.435 2.505 30 2 C15.15 1.505 15.15 1.505 0 1 C0 0.67 0 0.34 0 0 Z " fill="#46444D" transform="translate(304,726)"/>
<path d="M0 0 C1.81274414 0.01450195 1.81274414 0.01450195 3.66210938 0.02929688 C5.55606445 0.06700195 5.55606445 0.06700195 7.48828125 0.10546875 C9.39963867 0.12577148 9.39963867 0.12577148 11.34960938 0.14648438 C14.50042182 0.18188676 17.6503917 0.23127085 20.80078125 0.29296875 C21.13078125 0.95296875 21.46078125 1.61296875 21.80078125 2.29296875 C11.43574869 3.21284486 1.19747766 3.40624995 -9.19921875 3.29296875 C-6.54997804 -0.23528271 -4.24924253 -0.05984849 0 0 Z " fill="#B8B8BE" transform="translate(313.19921875,726.70703125)"/>
<path d="M0 0 C2.33944736 0.28730055 4.6739143 0.61936779 7 1 C7.625 3.3125 7.625 3.3125 8 6 C7.01 7.485 7.01 7.485 6 9 C3.375 9.1875 3.375 9.1875 1 9 C1 8.34 1 7.68 1 7 C0.34 7 -0.32 7 -1 7 C-1.04254356 5.00045254 -1.04080783 2.99958364 -1 1 C-0.67 0.67 -0.34 0.34 0 0 Z " fill="#EEECEE" transform="translate(1131,111)"/>
<path d="M0 0 C0 12.21 0 24.42 0 37 C-0.33 37 -0.66 37 -1 37 C-1.66 26.77 -2.32 16.54 -3 6 C-4.98 6.99 -4.98 6.99 -7 8 C-8.3242287 8.36784131 -9.65613912 8.71202981 -11 9 C-9.33333333 7.33333333 -7.66666667 5.66666667 -6 4 C-5.278125 3.236875 -4.55625 2.47375 -3.8125 1.6875 C-2 0 -2 0 0 0 Z " fill="#3C3B42" transform="translate(279,733)"/>
<path d="M0 0 C0.33 0.66 0.66 1.32 1 2 C1.66 2 2.32 2 3 2 C3 3.65 3 5.3 3 7 C2.34 6.01 1.68 5.02 1 4 C0.35933594 4.59167969 -0.28132812 5.18335938 -0.94140625 5.79296875 C-5.77628605 10.20993048 -10.56823923 14.33946557 -16 18 C-14.45311471 14.42644681 -12.29462895 11.87441444 -9.6875 9 C-8.92824219 8.154375 -8.16898438 7.30875 -7.38671875 6.4375 C-5.05942071 4.06068498 -2.64007334 2.01860475 0 0 Z " fill="#B7B6BB" transform="translate(840,369)"/>
<path d="M0 0 C2.5 0.125 2.5 0.125 3.5 1.125 C3.625 4.625 3.625 4.625 3.5 8.125 C2.5 9.125 2.5 9.125 0.0625 9.3125 C-2.5 9.125 -2.5 9.125 -4.5 7.125 C-3.79230769 0.18961538 -3.79230769 0.18961538 0 0 Z " fill="#D8D5D6" transform="translate(1362.5,899.875)"/>
<path d="M0 0 C6.78471289 5.55112873 12.85114918 11.76717397 19 18 C19.66 18.66 20.32 19.32 21 20 C20.34 20.99 19.68 21.98 19 23 C18.34 23 17.68 23 17 23 C16.74863281 22.2575 16.49726563 21.515 16.23828125 20.75 C14.90708619 17.79365514 13.52635863 16.2181145 11.1875 14 C10.12208984 12.97519531 10.12208984 12.97519531 9.03515625 11.9296875 C8.36355469 11.29289063 7.69195312 10.65609375 7 10 C6.0380752 9.04527164 5.07905194 8.08759569 4.125 7.125 C3.42375 6.42375 2.7225 5.7225 2 5 C1.34 4.34 0.68 3.68 0 3 C0 2.01 0 1.02 0 0 Z " fill="#ACA9AC" transform="translate(257,704)"/>
<path d="M0 0 C3.0625 0.1875 3.0625 0.1875 5.0625 2.1875 C4.50694444 6.74305556 4.50694444 6.74305556 3.0625 8.1875 C1.06291636 8.22830783 -0.93795254 8.23004356 -2.9375 8.1875 C-3.31813221 5.8614143 -3.65019945 3.52694736 -3.9375 1.1875 C-2.9375 0.1875 -2.9375 0.1875 0 0 Z " fill="#E3DDDF" transform="translate(151.9375,1073.8125)"/>
<path d="M0 0 C3.0625 0.1875 3.0625 0.1875 5.0625 2.1875 C4.50694444 6.74305556 4.50694444 6.74305556 3.0625 8.1875 C0.625 8.375 0.625 8.375 -1.9375 8.1875 C-3.9375 6.1875 -3.9375 6.1875 -4.125 3.625 C-3.8509967 0.06295712 -3.62735131 0.23153306 0 0 Z " fill="#DDDADA" transform="translate(451.9375,85.8125)"/>
<path d="M0 0 C2.5625 0.1875 2.5625 0.1875 4.5625 2.1875 C4.00694444 6.74305556 4.00694444 6.74305556 2.5625 8.1875 C0.125 8.4375 0.125 8.4375 -2.4375 8.1875 C-4.4375 5.1875 -4.4375 5.1875 -4.125 3.0625 C-3.12124957 0.32499884 -2.99341211 0.23026247 0 0 Z " fill="#E4E2E2" transform="translate(859.4375,1109.8125)"/>
<path d="M0 0 C0.33 0.99 0.66 1.98 1 3 C1.99 3.33 2.98 3.66 4 4 C-8.83803863 17.19910847 -8.83803863 17.19910847 -15 20 C-11.17840479 14.68740363 -7.0921927 9.77540738 -2.63671875 4.98046875 C-0.79966315 2.99997183 -0.79966315 2.99997183 0 0 Z " fill="#C1C0BD" transform="translate(1094,625)"/>
<path d="M0 0 C1.134375 0.020625 2.26875 0.04125 3.4375 0.0625 C3.5625 2.9375 3.5625 2.9375 3.4375 6.0625 C2.7775 6.7225 2.1175 7.3825 1.4375 8.0625 C-3.11805556 7.50694444 -3.11805556 7.50694444 -4.5625 6.0625 C-4.6875 3.5625 -4.6875 3.5625 -4.5625 1.0625 C-3.5625 0.0625 -3.5625 0.0625 0 0 Z " fill="#E2DFDF" transform="translate(1430.5625,1248.9375)"/>
<path d="M0 0 C0.66 0.33 1.32 0.66 2 1 C2 13.87 2 26.74 2 40 C1.67 40 1.34 40 1 40 C0.67 31.75 0.34 23.5 0 15 C-0.33 15 -0.66 15 -1 15 C-1.09038099 9.84828377 -0.84681133 5.08086796 0 0 Z " fill="#908F96" transform="translate(844,310)"/>
<path d="M0 0 C1.99954746 -0.04254356 4.00041636 -0.04080783 6 0 C7 1 7 1 7.0625 4.0625 C7.041875 5.031875 7.02125 6.00125 7 7 C4.6875 7.6875 4.6875 7.6875 2 8 C0.125 6.875 0.125 6.875 -1 5 C-0.6875 2.3125 -0.6875 2.3125 0 0 Z " fill="#E8E7E8" transform="translate(954,692)"/>
<path d="M0 0 C0 0.33 0 0.66 0 1 C-0.93972656 1.09087891 -0.93972656 1.09087891 -1.8984375 1.18359375 C-2.71570312 1.26738281 -3.53296875 1.35117187 -4.375 1.4375 C-5.18710938 1.51871094 -5.99921875 1.59992187 -6.8359375 1.68359375 C-9.04272805 1.89090114 -9.04272805 1.89090114 -11 3 C-12.52148326 3.08372659 -14.04655778 3.10730027 -15.5703125 3.09765625 C-16.46621094 3.09443359 -17.36210938 3.09121094 -18.28515625 3.08789062 C-19.22230469 3.07951172 -20.15945313 3.07113281 -21.125 3.0625 C-22.06988281 3.05798828 -23.01476563 3.05347656 -23.98828125 3.04882812 C-26.32558387 3.03702357 -28.66276061 3.02055759 -31 3 C-31 2.34 -31 1.68 -31 1 C-20.6510926 0.34956362 -10.3734499 -0.16494885 0 0 Z " fill="#B0B1B2" transform="translate(1078,619)"/>
<path d="M0 0 C0.99 0 1.98 0 3 0 C3 13.53 3 27.06 3 41 C2.67 41 2.34 41 2 41 C1.67 30.11 1.34 19.22 1 8 C0.67 8 0.34 8 0 8 C0 5.36 0 2.72 0 0 Z " fill="#ACAAAC" transform="translate(279,673)"/>
<path d="M0 0 C1.99954746 -0.04254356 4.00041636 -0.04080783 6 0 C7 1 7 1 7.125 3.5 C7 6 7 6 6 7 C4.00041636 7.04080783 1.99954746 7.04254356 0 7 C-0.93423645 3.98968256 -1.04449911 3.13349732 0 0 Z " fill="#BBB1AE" transform="translate(2008,1094)"/>
<path d="M0 0 C1.4540625 0.0309375 1.4540625 0.0309375 2.9375 0.0625 C3.5625 2.4375 3.5625 2.4375 3.9375 5.0625 C3.2775 5.7225 2.6175 6.3825 1.9375 7.0625 C-0.6875 6.6875 -0.6875 6.6875 -3.0625 6.0625 C-3.44468767 4.40635343 -3.77645102 2.73792976 -4.0625 1.0625 C-3.0625 0.0625 -3.0625 0.0625 0 0 Z " fill="#978D8F" transform="translate(57.0625,402.9375)"/>
<path d="M0 0 C2.31 0 4.62 0 7 0 C7 1.98 7 3.96 7 6 C2.25 7.125 2.25 7.125 0 6 C0 4.02 0 2.04 0 0 Z " fill="#E9E5E6" transform="translate(278,1132)"/>
<path d="M0 0 C-1.45317939 3.3907519 -3.41300312 5.41300312 -6 8 C-6.33 8.99 -6.66 9.98 -7 11 C-8 12 -9 13 -10 14 C-11.17574711 16.09989652 -11.17574711 16.09989652 -12 18 C-12 16.68 -12 15.36 -12 14 C-12.66 13.67 -13.32 13.34 -14 13 C-12.38405168 10.95880212 -10.7143618 8.95927063 -9 7 C-8.34 7 -7.68 7 -7 7 C-6.731875 6.401875 -6.46375 5.80375 -6.1875 5.1875 C-3.37142857 0 -3.37142857 0 0 0 Z " fill="#B8B7BA" transform="translate(303,705)"/>
<path d="M0 0 C1.2065625 0.0309375 1.2065625 0.0309375 2.4375 0.0625 C3.5625 4.8125 3.5625 4.8125 2.4375 7.0625 C0.77138095 7.105221 -0.89632885 7.10313832 -2.5625 7.0625 C-3.5625 6.0625 -3.5625 6.0625 -3.6875 3.5625 C-3.51717518 0.15600356 -3.41884482 0.08338646 0 0 Z " fill="#E3E0E2" transform="translate(2122.5625,1183.9375)"/>
<path d="M0 0 C0.33 0 0.66 0 1 0 C1 9.57 1 19.14 1 29 C-3 27 -3 27 -5 24 C-3.68 23.67 -2.36 23.34 -1 23 C-0.67 15.41 -0.34 7.82 0 0 Z " fill="#2C2934" transform="translate(277,694)"/>
<path d="M0 0 C-0.33 1.65 -0.66 3.3 -1 5 C-2.65614657 5.38218767 -4.32457024 5.71395102 -6 6 C-7 5 -7 5 -7.0625 2.4375 C-7.041875 1.633125 -7.02125 0.82875 -7 0 C-4.3333581 -1.33332095 -2.83319697 -0.67102033 0 0 Z " fill="#D4D0CC" transform="translate(105,848)"/>
<path d="M0 0 C0.66 0.33 1.32 0.66 2 1 C-2.66666667 5.66666667 -7.33333333 10.33333333 -12 15 C-12.99 14.67 -13.98 14.34 -15 14 C-13.44073252 12.41348318 -11.87743482 10.83092685 -10.3125 9.25 C-9.44238281 8.36828125 -8.57226562 7.4865625 -7.67578125 6.578125 C-5.21997532 4.21194702 -2.69858952 2.08107444 0 0 Z " fill="#B6B5B3" transform="translate(1127,596)"/>
<path d="M0 0 C2.84987672 1.16106089 4.14739589 2.17266376 6.1875 4.5625 C9.96334867 7.83490218 13.1392761 7.88351206 18 8 C18 8.33 18 8.66 18 9 C15.03 9 12.06 9 9 9 C9 11.97 9 14.94 9 18 C8.67 18 8.34 18 8 18 C8.00902344 17.43152344 8.01804687 16.86304688 8.02734375 16.27734375 C7.83432646 11.25050221 7.13729224 8.59818855 3.4375 5.0625 C2.79683594 4.51722656 2.15617188 3.97195313 1.49609375 3.41015625 C1.00238281 2.94480469 0.50867188 2.47945313 0 2 C0 1.34 0 0.68 0 0 Z " fill="#74747B" transform="translate(820,342)"/>
<path d="M0 0 C1.98 0 3.96 0 6 0 C6 1.98 6 3.96 6 6 C4.34385343 6.38218767 2.67542976 6.71395102 1 7 C0 6 0 6 -0.0625 2.9375 C-0.041875 1.968125 -0.02125 0.99875 0 0 Z " fill="#E2E0DF" transform="translate(1165,1302)"/>
<path d="M0 0 C0.33 0.99 0.66 1.98 1 3 C1.66 3 2.32 3 3 3 C3.05423638 4.91635217 3.09289963 6.83314925 3.125 8.75 C3.14820313 9.81734375 3.17140625 10.8846875 3.1953125 11.984375 C3.00487687 14.92470106 2.52670104 16.52361878 1 19 C-0.15316726 12.65758005 -0.09507063 6.43311296 0 0 Z " fill="#C6C9D5" transform="translate(1102,651)"/>
<path d="M0 0 C4.25209792 4.12324647 8.13635705 8.51282966 12 13 C11.67 13.66 11.34 14.32 11 15 C7.04 11.04 3.08 7.08 -1 3 C-0.67 2.01 -0.34 1.02 0 0 Z " fill="#A8A6AA" transform="translate(291,737)"/>
<path d="M0 0 C1.98 0 3.96 0 6 0 C6 1.98 6 3.96 6 6 C4.34385343 6.38218767 2.67542976 6.71395102 1 7 C0 6 0 6 -0.0625 2.9375 C-0.041875 1.968125 -0.02125 0.99875 0 0 Z " fill="#FDFBFC" transform="translate(689,193)"/>
<path d="M0 0 C1.2065625 0.0309375 1.2065625 0.0309375 2.4375 0.0625 C2.81968767 1.71864657 3.15145102 3.38707024 3.4375 5.0625 C2.4375 6.0625 2.4375 6.0625 -0.125 6.125 C-1.3315625 6.0940625 -1.3315625 6.0940625 -2.5625 6.0625 C-2.94468767 4.40635343 -3.27645102 2.73792976 -3.5625 1.0625 C-2.5625 0.0625 -2.5625 0.0625 0 0 Z " fill="#E0DAD8" transform="translate(1531.5625,1161.9375)"/>
<path d="M0 0 C9.57 0 19.14 0 29 0 C27 4 27 4 25 5 C24.67 4.01 24.34 3.02 24 2 C16.08 1.67 8.16 1.34 0 1 C0 0.67 0 0.34 0 0 Z " fill="#4B4B54" transform="translate(247,730)"/>
<path d="M0 0 C3.68069887 1.53643852 5.98775204 3.78150945 8.75 6.625 C9.54921875 7.44226563 10.3484375 8.25953125 11.171875 9.1015625 C12.07679687 10.04128906 12.07679687 10.04128906 13 11 C12.01 12.485 12.01 12.485 11 14 C10.54109375 13.46890625 10.0821875 12.9378125 9.609375 12.390625 C5.70720627 7.8947499 5.70720627 7.8947499 1.5625 3.625 C0 2 0 2 0 0 Z " fill="#C7C7CA" transform="translate(1079,596)"/>
<path d="M0 0 C1.65 0 3.3 0 5 0 C5.33 1.65 5.66 3.3 6 5 C3.625 5.625 3.625 5.625 1 6 C0.34 5.34 -0.32 4.68 -1 4 C-0.625 1.875 -0.625 1.875 0 0 Z " fill="#EBEBED" transform="translate(716,1132)"/>
<path d="M0 0 C0.66 0 1.32 0 2 0 C2 3.63 2 7.26 2 11 C1.34 11 0.68 11 0 11 C0 14.63 0 18.26 0 22 C-0.33 22 -0.66 22 -1 22 C-1.09377123 14.58165418 -1.17402193 7.33763707 0 0 Z " fill="#6F7581" transform="translate(1103,564)"/>
<path d="M0 0 C1.07765625 0.01804687 2.1553125 0.03609375 3.265625 0.0546875 C4.49539063 0.08949219 4.49539063 0.08949219 5.75 0.125 C5.75 0.785 5.75 1.445 5.75 2.125 C6.74 2.455 7.73 2.785 8.75 3.125 C2.48 2.795 -3.79 2.465 -10.25 2.125 C-6.14441282 0.07220641 -4.44793315 -0.0966942 0 0 Z " fill="#DEDDDF" transform="translate(821.25,364.875)"/>
<path d="M0 0 C0.33 0 0.66 0 1 0 C1.05383848 2.45862401 1.09359038 4.9160755 1.125 7.375 C1.14175781 8.07367187 1.15851563 8.77234375 1.17578125 9.4921875 C1.19344267 11.32897486 1.10303261 13.16601963 1 15 C0.34 15.66 -0.32 16.32 -1 17 C-2.4241906 14.15161879 -2.16995508 11.67212092 -2.1875 8.5 C-2.20876953 6.75203125 -2.20876953 6.75203125 -2.23046875 4.96875 C-2 2 -2 2 0 0 Z " fill="#9998A2" transform="translate(281,761)"/>
<path d="M0 0 C0.99 0 1.98 0 3 0 C3 3.96 3 7.92 3 12 C2.01 12 1.02 12 0 12 C0 8.04 0 4.08 0 0 Z " fill="#4F4E5A" transform="translate(279,776)"/>
<path d="M0 0 C4.62 0 9.24 0 14 0 C14 0.66 14 1.32 14 2 C9.05 2.33 4.1 2.66 -1 3 C-0.67 2.01 -0.34 1.02 0 0 Z " fill="#E5E5E6" transform="translate(855,365)"/>
<path d="M0 0 C1.2065625 0.0309375 1.2065625 0.0309375 2.4375 0.0625 C2.4375 2.0425 2.4375 4.0225 2.4375 6.0625 C0.7875 6.0625 -0.8625 6.0625 -2.5625 6.0625 C-2.94468767 4.40635343 -3.27645102 2.73792976 -3.5625 1.0625 C-2.5625 0.0625 -2.5625 0.0625 0 0 Z " fill="#D2CED0" transform="translate(1642.5625,131.9375)"/>
<path d="M0 0 C0 3 0 3 -2.375 5.5 C-3.24125 6.325 -4.1075 7.15 -5 8 C-5.99 9.485 -5.99 9.485 -7 11 C-7 10.01 -7 9.02 -7 8 C-7.66 8 -8.32 8 -9 8 C-9 7.34 -9 6.68 -9 6 C-3.80769231 1.26923077 -3.80769231 1.26923077 0 0 Z " fill="#C8C9CA" transform="translate(855,355)"/>
<path d="M0 0 C7.26 0 14.52 0 22 0 C22 0.33 22 0.66 22 1 C15.4 1.33 8.8 1.66 2 2 C1.67 2.99 1.34 3.98 1 5 C0.01 4.67 -0.98 4.34 -2 4 C-1.34 2.68 -0.68 1.36 0 0 Z " fill="#A2A3A3" transform="translate(1108,622)"/>
<path d="M0 0 C1.65 0 3.3 0 5 0 C5 1.65 5 3.3 5 5 C1.25 6.125 1.25 6.125 -1 5 C-0.67 3.35 -0.34 1.7 0 0 Z " fill="#CFCBC5" transform="translate(1335,313)"/>
<path d="M0 0 C1.32 0 2.64 0 4 0 C4 1.65 4 3.3 4 5 C0.25 6.125 0.25 6.125 -2 5 C-1.125 1.125 -1.125 1.125 0 0 Z " fill="#BFBDB9" transform="translate(1320,73)"/>
<path d="M0 0 C1.32 0 2.64 0 4 0 C4 1.98 4 3.96 4 6 C2.35 5.67 0.7 5.34 -1 5 C-0.67 3.35 -0.34 1.7 0 0 Z " fill="#BDBAB7" transform="translate(1320,765)"/>
<path d="M0 0 C4.13937592 3.30015998 7.58662205 6.17324411 10 11 C6.03519703 9.32258336 3.15958323 6.87873138 0 4 C-0.33 3.01 -0.66 2.02 -1 1 C-0.67 0.67 -0.34 0.34 0 0 Z " fill="#838286" transform="translate(859,380)"/>
<path d="M0 0 C1.32 0 2.64 0 4 0 C4 0.66 4 1.32 4 2 C8.29 2 12.58 2 17 2 C17 2.33 17 2.66 17 3 C11.06 3 5.12 3 -1 3 C-0.67 2.01 -0.34 1.02 0 0 Z " fill="#64636D" transform="translate(225,727)"/>
<path d="M0 0 C0.33 0.66 0.66 1.32 1 2 C1.66 2 2.32 2 3 2 C3 3.65 3 5.3 3 7 C2.34 6.01 1.68 5.02 1 4 C-0.32 4.99 -1.64 5.98 -3 7 C-3 6.34 -3 5.68 -3 5 C-3.66 4.67 -4.32 4.34 -5 4 C-3.35 2.68 -1.7 1.36 0 0 Z " fill="#AFAEB1" transform="translate(840,369)"/>
<path d="M0 0 C1.65 0 3.3 0 5 0 C5 1.32 5 2.64 5 4 C3.35 4.33 1.7 4.66 0 5 C0 3.35 0 1.7 0 0 Z " fill="#D1C3C5" transform="translate(429,308)"/>
<path d="M0 0 C1.65 0.33 3.3 0.66 5 1 C5 2.32 5 3.64 5 5 C3.35 4.67 1.7 4.34 0 4 C0 2.68 0 1.36 0 0 Z " fill="#D1C6BB" transform="translate(1219,1083)"/>
<path d="M0 0 C0.99 0.33 1.98 0.66 3 1 C0.03 3.97 -2.94 6.94 -6 10 C-6 6.41087588 -5.33563446 5.89142971 -3 3.3125 C-2.443125 2.68988281 -1.88625 2.06726563 -1.3125 1.42578125 C-0.879375 0.95527344 -0.44625 0.48476563 0 0 Z " fill="#B2B1B4" transform="translate(265,741)"/>
<path d="M0 0 C1.65 0 3.3 0 5 0 C4.67 1.65 4.34 3.3 4 5 C2.68 5 1.36 5 0 5 C0 3.35 0 1.7 0 0 Z " fill="#C1B9B6" transform="translate(264,1340)"/>
<path d="M0 0 C2.475 0.495 2.475 0.495 5 1 C5 2.32 5 3.64 5 5 C3.35 5 1.7 5 0 5 C0 3.35 0 1.7 0 0 Z " fill="#F1E9DF" transform="translate(2009,1095)"/>
<path d="M0 0 C1.32 0 2.64 0 4 0 C3.67 1.65 3.34 3.3 3 5 C1.68 5 0.36 5 -1 5 C-0.67 3.35 -0.34 1.7 0 0 Z " fill="#C5BEBE" transform="translate(140,1288)"/>
<path d="M0 0 C1.65 0 3.3 0 5 0 C4.67 1.65 4.34 3.3 4 5 C2.68 4.67 1.36 4.34 0 4 C0 2.68 0 1.36 0 0 Z " fill="#CBC5C4" transform="translate(60,1069)"/>
<path d="M0 0 C0.99 0 1.98 0 3 0 C3 1.98 3 3.96 3 6 C1.68 6 0.36 6 -1 6 C-1.042721 4.33388095 -1.04063832 2.66617115 -1 1 C-0.67 0.67 -0.34 0.34 0 0 Z " fill="#A29DA0" transform="translate(423,802)"/>
<path d="M0 0 C0.99 0 1.98 0 3 0 C3 3.3 3 6.6 3 10 C2.01 9.34 1.02 8.68 0 8 C-0.40843923 5.28796348 -0.13336867 2.7562858 0 0 Z " fill="#757278" transform="translate(279,673)"/>
<path d="M0 0 C0.99 0 1.98 0 3 0 C3 1.65 3 3.3 3 5 C1.68 5.33 0.36 5.66 -1 6 C-1.042721 4.33388095 -1.04063832 2.66617115 -1 1 C-0.67 0.67 -0.34 0.34 0 0 Z " fill="#B7B0AF" transform="translate(230,505)"/>
<path d="M0 0 C0.66 0.33 1.32 0.66 2 1 C2.3125 4.25 2.3125 4.25 2 8 C-0.5 10.4375 -0.5 10.4375 -3 12 C-3.66 11.01 -4.32 10.02 -5 9 C-3.35 8.34 -1.7 7.68 0 7 C0 4.69 0 2.38 0 0 Z " fill="#4D4B50" transform="translate(1574,737)"/>
<path d="M0 0 C1.98 0.495 1.98 0.495 4 1 C3.67 2.32 3.34 3.64 3 5 C1.68 4.67 0.36 4.34 -1 4 C-0.67 2.68 -0.34 1.36 0 0 Z " fill="#A8989E" transform="translate(1490,611)"/>
<path d="M0 0 C0.99 0 1.98 0 3 0 C3.33 1.98 3.66 3.96 4 6 C1.53199953 4.84826645 -0.04783565 3.95216435 -2 2 C-1.34 2 -0.68 2 0 2 C0 1.34 0 0.68 0 0 Z " fill="#D8D7D9" transform="translate(287,732)"/>
<path d="M0 0 C0.99 0 1.98 0 3 0 C3 1.65 3 3.3 3 5 C1.68 5 0.36 5 -1 5 C-0.67 3.35 -0.34 1.7 0 0 Z " fill="#C9C5C6" transform="translate(651,38)"/>
<path d="M0 0 C1.2065625 0.0309375 1.2065625 0.0309375 2.4375 0.0625 C0.7875 1.7125 -0.8625 3.3625 -2.5625 5.0625 C-3.125 3.125 -3.125 3.125 -3.5625 1.0625 C-2.5625 0.0625 -2.5625 0.0625 0 0 Z " fill="#E5E1E4" transform="translate(718.5625,1131.9375)"/>
<path d="M0 0 C2 3 2 3 2 6 C-1.16115776 4.63016497 -1.9927092 4.0109362 -4 1 C-2.68 0.67 -1.36 0.34 0 0 Z " fill="#343037" transform="translate(276,717)"/>
<path d="M0 0 C3.36720387 1.39332574 4.9859524 2.9789286 7 6 C4 6 4 6 1.8125 4.125 C0 2 0 2 0 0 Z " fill="#898A8D" transform="translate(1079,596)"/>
<path d="M0 0 C1.65 0 3.3 0 5 0 C5 1.32 5 2.64 5 4 C3.68 4 2.36 4 1 4 C0.67 2.68 0.34 1.36 0 0 Z " fill="#DCD7D4" transform="translate(55,405)"/>
<path d="M0 0 C0.33 0 0.66 0 1 0 C1.05399736 1.45792884 1.09279177 2.91642712 1.125 4.375 C1.14820313 5.18710938 1.17140625 5.99921875 1.1953125 6.8359375 C1 9 1 9 -1 11 C-1.99 10.67 -2.98 10.34 -4 10 C-3.525625 9.649375 -3.05125 9.29875 -2.5625 8.9375 C-0.32126175 6.15836457 -0.32882342 3.4855283 0 0 Z " fill="#615C63" transform="translate(277,145)"/>
<path d="M0 0 C-1.15173355 2.46800047 -2.04783565 4.04783565 -4 6 C-4.99 5.67 -5.98 5.34 -7 5 C-2.25 0 -2.25 0 0 0 Z " fill="#8C8B8E" transform="translate(303,705)"/>
<path d="M0 0 C0.99 0 1.98 0 3 0 C1.63016497 3.16115776 1.0109362 3.9927092 -2 6 C-1.125 1.125 -1.125 1.125 0 0 Z " fill="#D1D0D2" transform="translate(834,374)"/>
</svg>
