<?xml version="1.0" encoding="UTF-8"?>
<svg id="Layer_2" data-name="Layer 2" xmlns="http://www.w3.org/2000/svg" viewBox="0 0 137.39 58.06">
  <defs>
    <style>
      .cls-1 {
        fill: #000;
        stroke-width: 0px;
      }
    </style>
  </defs>
  <g id="Layer_1-2" data-name="Layer 1">
    <g id="y2k_Asset_by_Annorastd-30" data-name="y2k Asset by Annorastd-30">
      <path class="cls-1" d="M134.01,33.32h-59.23c-1.02,0-1.98-.46-2.62-1.25l-10.63-13.15c-.64-.79-1.6-1.25-2.62-1.25H20.22c-.8,0-1.58-.29-2.19-.81L5.23,5.93C2.85,3.9,4.28,0,7.42,0h50.97c.97,0,1.89.42,2.53,1.14l12.23,13.87c.64.73,1.56,1.14,2.53,1.14h46.08c.8,0,1.57.28,2.18.8l12.27,10.43c2.39,2.03.95,5.94-2.18,5.94Z"/>
      <path class="cls-1" d="M129.98,58.06h-59.23c-1.02,0-1.98-.46-2.62-1.25l-10.63-13.15c-.64-.79-1.6-1.25-2.62-1.25H16.18c-.8,0-1.58-.29-2.19-.81L1.19,30.67c-2.38-2.03-.94-5.93,2.19-5.93h50.97c.97,0,1.89.42,2.53,1.14l12.23,13.87c.64.73,1.56,1.14,2.53,1.14h46.08c.8,0,1.57.28,2.18.8l12.27,10.43c2.39,2.03.95,5.94-2.18,5.94Z"/>
    </g>
  </g>
</svg>